<?xml version="1.0" standalone="no"?>
 <!DOCTYPE svg PUBLIC "-//W3C//DTD SVG 1.1//EN" 
 "http://www.w3.org/Graphics/SVG/1.1/DTD/svg11.dtd"> 
<svg
  xmlns:svg="http://www.w3.org/2000/svg"
  xmlns="http://www.w3.org/2000/svg"
  xmlns:xlink="http://www.w3.org/1999/xlink"
  version="1.1"
  width="297.0022mm" height="210.0072mm" viewBox="0.0000 0.0000 297.0022 210.0072">
<title>SVG Image created as -coil.svg date 2024/06/28 09:36:25 </title>
  <desc>Image generated by PCBNEW </desc>
<g style="fill:#000000; fill-opacity:1.0000;stroke:#000000; stroke-opacity:1.0000;
stroke-linecap:round; stroke-linejoin:round;"
 transform="translate(0 0) scale(1 1)">
</g>
<g style="fill:none; 
stroke:#000000; stroke-width:0.9000; stroke-opacity:1; 
stroke-linecap:round; stroke-linejoin:round;">
<path d="M161.1500 88.8500
L139.9000 88.8500
" />
<path d="M161.1500 111.1500
L161.1500 88.8500
" />
<path d="M138.8500 111.1500
L161.1500 111.1500
" />
<path d="M138.8500 87.8000
L138.8500 111.1500
" />
<path d="M162.2000 87.8000
L138.8500 87.8000
" />
<path d="M162.2000 112.2000
L162.2000 87.8000
" />
<path d="M137.8000 112.2000
L162.2000 112.2000
" />
<path d="M137.8000 86.7500
L137.8000 112.2000
" />
<path d="M163.2500 86.7500
L137.8000 86.7500
" />
<path d="M163.2500 113.2500
L163.2500 86.7500
" />
<path d="M136.7500 113.2500
L163.2500 113.2500
" />
<path d="M136.7500 85.7000
L136.7500 113.2500
" />
<path d="M164.3000 85.7000
L136.7500 85.7000
" />
<path d="M164.3000 114.3000
L164.3000 85.7000
" />
<path d="M135.7000 114.3000
L164.3000 114.3000
" />
<path d="M135.7000 84.6500
L135.7000 114.3000
" />
<path d="M165.3500 84.6500
L135.7000 84.6500
" />
<path d="M165.3500 115.3500
L165.3500 84.6500
" />
<path d="M134.6500 115.3500
L165.3500 115.3500
" />
<path d="M134.6500 83.6000
L134.6500 115.3500
" />
<path d="M166.4000 83.6000
L134.6500 83.6000
" />
<path d="M166.4000 116.4000
L166.4000 83.6000
" />
<path d="M133.6000 116.4000
L166.4000 116.4000
" />
<path d="M133.6000 82.5500
L133.6000 116.4000
" />
<path d="M167.4500 82.5500
L133.6000 82.5500
" />
<path d="M167.4500 117.4500
L167.4500 82.5500
" />
<path d="M132.5500 117.4500
L167.4500 117.4500
" />
<path d="M132.5500 81.5000
L132.5500 117.4500
" />
<path d="M168.5000 81.5000
L132.5500 81.5000
" />
<path d="M168.5000 118.5000
L168.5000 81.5000
" />
<path d="M131.5000 118.5000
L168.5000 118.5000
" />
<path d="M131.5000 80.4500
L131.5000 118.5000
" />
<path d="M169.5500 80.4500
L131.5000 80.4500
" />
<path d="M169.5500 119.5500
L169.5500 80.4500
" />
<path d="M130.4500 119.5500
L169.5500 119.5500
" />
<path d="M130.4500 79.4000
L130.4500 119.5500
" />
</g> 
</svg>
