<?xml version="1.0" standalone="no"?>
 <!DOCTYPE svg PUBLIC "-//W3C//DTD SVG 1.1//EN" 
 "http://www.w3.org/Graphics/SVG/1.1/DTD/svg11.dtd"> 
<svg
  xmlns:svg="http://www.w3.org/2000/svg"
  xmlns="http://www.w3.org/2000/svg"
  xmlns:xlink="http://www.w3.org/1999/xlink"
  version="1.1"
  width="297.0022mm" height="210.0072mm" viewBox="0.0000 0.0000 297.0022 210.0072">
<title>SVG Image created as -coil.svg date 2024/07/09 12:38:04 </title>
  <desc>Image generated by PCBNEW </desc>
<g style="fill:#000000; fill-opacity:1.0000;stroke:#000000; stroke-opacity:1.0000;
stroke-linecap:round; stroke-linejoin:round;"
 transform="translate(0 0) scale(1 1)">
</g>
<g style="fill:none; 
stroke:#000000; stroke-width:0.9000; stroke-opacity:1; 
stroke-linecap:round; stroke-linejoin:round;">
<path d="M150.8815 110.0761
L150.0000 110.1000
" />
<path d="M151.7589 109.9753
L150.8815 110.0761
" />
<path d="M152.6254 109.7981
L151.7589 109.9753
" />
<path d="M153.4744 109.5457
L152.6254 109.7981
" />
<path d="M154.2993 109.2198
L153.4744 109.5457
" />
<path d="M155.0938 108.8226
L154.2993 109.2198
" />
<path d="M155.8517 108.3571
L155.0938 108.8226
" />
<path d="M156.5671 107.8264
L155.8517 108.3571
" />
<path d="M157.2346 107.2346
L156.5671 107.8264
" />
<path d="M157.8488 106.5859
L157.2346 107.2346
" />
<path d="M158.4048 105.8851
L157.8488 106.5859
" />
<path d="M158.8984 105.1375
L158.4048 105.8851
" />
<path d="M159.3255 104.3486
L158.8984 105.1375
" />
<path d="M159.6827 103.5242
L159.3255 104.3486
" />
<path d="M159.9671 102.6707
L159.6827 103.5242
" />
<path d="M160.1763 101.7944
L159.9671 102.6707
" />
<path d="M160.3085 100.9019
L160.1763 101.7944
" />
<path d="M160.3625 100.0000
L160.3085 100.9019
" />
<path d="M160.3376 99.0956
L160.3625 100.0000
" />
<path d="M160.2338 98.1955
L160.3376 99.0956
" />
<path d="M160.0517 97.3067
L160.2338 98.1955
" />
<path d="M159.7924 96.4359
L160.0517 97.3067
" />
<path d="M159.4577 95.5898
L159.7924 96.4359
" />
<path d="M159.0500 94.7750
L159.4577 95.5898
" />
<path d="M158.5721 93.9978
L159.0500 94.7750
" />
<path d="M158.0275 93.2641
L158.5721 93.9978
" />
<path d="M157.4202 92.5798
L158.0275 93.2641
" />
<path d="M156.7546 91.9501
L157.4202 92.5798
" />
<path d="M156.0357 91.3801
L156.7546 91.9501
" />
<path d="M155.2687 90.8743
L156.0357 91.3801
" />
<path d="M154.4595 90.4366
L155.2687 90.8743
" />
<path d="M153.6140 90.0706
L154.4595 90.4366
" />
<path d="M152.7386 89.7793
L153.6140 90.0706
" />
<path d="M151.8399 89.5651
L152.7386 89.7793
" />
<path d="M150.9248 89.4300
L151.8399 89.5651
" />
<path d="M150.0000 89.3750
L150.9248 89.4300
" />
<path d="M149.0727 89.4009
L150.0000 89.3750
" />
<path d="M148.1499 89.5077
L149.0727 89.4009
" />
<path d="M147.2387 89.6948
L148.1499 89.5077
" />
<path d="M146.3461 89.9609
L147.2387 89.6948
" />
<path d="M145.4789 90.3044
L146.3461 89.9609
" />
<path d="M144.6437 90.7227
L145.4789 90.3044
" />
<path d="M143.8472 91.2129
L144.6437 90.7227
" />
<path d="M143.0954 91.7714
L143.8472 91.2129
" />
<path d="M142.3942 92.3942
L143.0954 91.7714
" />
<path d="M141.7491 93.0766
L142.3942 92.3942
" />
<path d="M141.1651 93.8137
L141.7491 93.0766
" />
<path d="M140.6469 94.6000
L141.1651 93.8137
" />
<path d="M140.1987 95.4296
L140.6469 94.6000
" />
<path d="M139.8239 96.2962
L140.1987 95.4296
" />
<path d="M139.5257 97.1934
L139.8239 96.2962
" />
<path d="M139.3066 98.1145
L139.5257 97.1934
" />
<path d="M139.1685 99.0524
L139.3066 98.1145
" />
<path d="M139.1125 100.0000
L139.1685 99.0524
" />
<path d="M139.1394 100.9502
L139.1125 100.0000
" />
<path d="M139.2492 101.8957
L139.1394 100.9502
" />
<path d="M139.4412 102.8292
L139.2492 101.8957
" />
<path d="M139.7143 103.7437
L139.4412 102.8292
" />
<path d="M140.0665 104.6321
L139.7143 103.7437
" />
<path d="M140.4954 105.4875
L140.0665 104.6321
" />
<path d="M140.9979 106.3034
L140.4954 105.4875
" />
<path d="M141.5703 107.0733
L140.9979 106.3034
" />
<path d="M142.2086 107.7914
L141.5703 107.0733
" />
<path d="M142.9079 108.4520
L142.2086 107.7914
" />
<path d="M143.6632 109.0499
L142.9079 108.4520
" />
<path d="M144.4688 109.5804
L143.6632 109.0499
" />
<path d="M145.3186 110.0392
L144.4688 109.5804
" />
<path d="M146.2064 110.4228
L145.3186 110.0392
" />
<path d="M147.1255 110.7278
L146.2064 110.4228
" />
<path d="M148.0689 110.9519
L147.1255 110.7278
" />
<path d="M149.0295 111.0930
L148.0689 110.9519
" />
<path d="M150.0000 111.1500
L149.0295 111.0930
" />
<path d="M150.9731 111.1221
L150.0000 111.1500
" />
<path d="M151.9412 111.0093
L150.9731 111.1221
" />
<path d="M152.8972 110.8123
L151.9412 111.0093
" />
<path d="M153.8335 110.5324
L152.8972 110.8123
" />
<path d="M154.7430 110.1714
L153.8335 110.5324
" />
<path d="M155.6188 109.7320
L154.7430 110.1714
" />
<path d="M156.4539 109.2172
L155.6188 109.7320
" />
<path d="M157.2421 108.6308
L156.4539 109.2172
" />
<path d="M157.9770 107.9770
L157.2421 108.6308
" />
<path d="M158.6531 107.2608
L157.9770 107.9770
" />
<path d="M159.2649 106.4874
L158.6531 107.2608
" />
<path d="M159.8077 105.6625
L159.2649 106.4874
" />
<path d="M160.2772 104.7923
L159.8077 105.6625
" />
<path d="M160.6694 103.8834
L160.2772 104.7923
" />
<path d="M160.9814 102.9424
L160.6694 103.8834
" />
<path d="M161.2104 101.9767
L160.9814 102.9424
" />
<path d="M161.3545 100.9934
L161.2104 101.9767
" />
<path d="M161.4125 100.0000
L161.3545 100.9934
" />
<path d="M161.3836 99.0041
L161.4125 100.0000
" />
<path d="M161.2678 98.0132
L161.3836 99.0041
" />
<path d="M161.0659 97.0349
L161.2678 98.0132
" />
<path d="M160.7791 96.0767
L161.0659 97.0349
" />
<path d="M160.4093 95.1461
L160.7791 96.0767
" />
<path d="M159.9593 94.2500
L160.4093 95.1461
" />
<path d="M159.4322 93.3955
L159.9593 94.2500
" />
<path d="M158.8319 92.5892
L159.4322 93.3955
" />
<path d="M158.1627 91.8373
L158.8319 92.5892
" />
<path d="M157.4296 91.1458
L158.1627 91.8373
" />
<path d="M156.6380 90.5200
L157.4296 91.1458
" />
<path d="M155.7937 89.9649
L156.6380 90.5200
" />
<path d="M154.9033 89.4849
L155.7937 89.9649
" />
<path d="M153.9731 89.0839
L154.9033 89.4849
" />
<path d="M153.0104 88.7651
L153.9731 89.0839
" />
<path d="M152.0223 88.5311
L153.0104 88.7651
" />
<path d="M151.0163 88.3840
L152.0223 88.5311
" />
<path d="M150.0000 88.3250
L151.0163 88.3840
" />
<path d="M148.9812 88.3549
L150.0000 88.3250
" />
<path d="M147.9676 88.4736
L148.9812 88.3549
" />
<path d="M146.9670 88.6806
L147.9676 88.4736
" />
<path d="M145.9870 88.9743
L146.9670 88.6806
" />
<path d="M145.0351 89.3528
L145.9870 88.9743
" />
<path d="M144.1187 89.8134
L145.0351 89.3528
" />
<path d="M143.2449 90.3528
L144.1187 89.8134
" />
<path d="M142.4205 90.9671
L143.2449 90.3528
" />
<path d="M141.6517 91.6517
L142.4205 90.9671
" />
<path d="M140.9447 92.4017
L141.6517 91.6517
" />
<path d="M140.3050 93.2115
L140.9447 92.4017
" />
<path d="M139.7376 94.0750
L140.3050 93.2115
" />
<path d="M139.2470 94.9858
L139.7376 94.0750
" />
<path d="M138.8372 95.9371
L139.2470 94.9858
" />
<path d="M138.5115 96.9217
L138.8372 95.9371
" />
<path d="M138.2726 97.9321
L138.5115 96.9217
" />
<path d="M138.1225 98.9608
L138.2726 97.9321
" />
<path d="M138.0625 100.0000
L138.1225 98.9608
" />
<path d="M138.0934 101.0417
L138.0625 100.0000
" />
<path d="M138.2151 102.0780
L138.0934 101.0417
" />
<path d="M138.4270 103.1010
L138.2151 102.0780
" />
<path d="M138.7276 104.1028
L138.4270 103.1010
" />
<path d="M139.1149 105.0758
L138.7276 104.1028
" />
<path d="M139.5860 106.0125
L139.1149 105.0758
" />
<path d="M140.1377 106.9056
L139.5860 106.0125
" />
<path d="M140.7660 107.7483
L140.1377 106.9056
" />
<path d="M141.4661 108.5339
L140.7660 107.7483
" />
<path d="M142.2330 109.2564
L141.4661 108.5339
" />
<path d="M143.0609 109.9100
L142.2330 109.2564
" />
<path d="M143.9437 110.4897
L143.0609 109.9100
" />
<path d="M144.8749 110.9909
L143.9437 110.4897
" />
<path d="M145.8473 111.4094
L144.8749 110.9909
" />
<path d="M146.8537 111.7420
L145.8473 111.4094
" />
<path d="M147.8866 111.9859
L146.8537 111.7420
" />
<path d="M148.9380 112.1390
L147.8866 111.9859
" />
<path d="M150.0000 112.2000
L148.9380 112.1390
" />
<path d="M151.0646 112.1681
L150.0000 112.2000
" />
<path d="M152.1236 112.0434
L151.0646 112.1681
" />
<path d="M153.1689 111.8266
L152.1236 112.0434
" />
<path d="M154.1926 111.5191
L153.1689 111.8266
" />
<path d="M155.1868 111.1230
L154.1926 111.5191
" />
<path d="M156.1437 110.6413
L155.1868 111.1230
" />
<path d="M157.0562 110.0773
L156.1437 110.6413
" />
<path d="M157.9170 109.4351
L157.0562 110.0773
" />
<path d="M158.7195 108.7195
L157.9170 109.4351
" />
<path d="M159.4575 107.9357
L158.7195 108.7195
" />
<path d="M160.1251 107.0896
L159.4575 107.9357
" />
<path d="M160.7171 106.1875
L160.1251 107.0896
" />
<path d="M161.2288 105.2361
L160.7171 106.1875
" />
<path d="M161.6561 104.2425
L161.2288 105.2361
" />
<path d="M161.9956 103.2142
L161.6561 104.2425
" />
<path d="M162.2444 102.1590
L161.9956 103.2142
" />
<path d="M162.4005 101.0849
L162.2444 102.1590
" />
<path d="M162.4625 100.0000
L162.4005 101.0849
" />
<path d="M162.4296 98.9125
L162.4625 100.0000
" />
<path d="M162.3019 97.8308
L162.4296 98.9125
" />
<path d="M162.0801 96.7631
L162.3019 97.8308
" />
<path d="M161.7657 95.7176
L162.0801 96.7631
" />
<path d="M161.3609 94.7023
L161.7657 95.7176
" />
<path d="M160.8686 93.7250
L161.3609 94.7023
" />
<path d="M160.2923 92.7933
L160.8686 93.7250
" />
<path d="M159.6362 91.9143
L160.2923 92.7933
" />
<path d="M158.9051 91.0949
L159.6362 91.9143
" />
<path d="M158.1045 90.3415
L158.9051 91.0949
" />
<path d="M157.2402 89.6599
L158.1045 90.3415
" />
<path d="M156.3187 89.0556
L157.2402 89.6599
" />
<path d="M155.3470 88.5333
L156.3187 89.0556
" />
<path d="M154.3323 88.0972
L155.3470 88.5333
" />
<path d="M153.2821 87.7509
L154.3323 88.0972
" />
<path d="M152.2046 87.4970
L153.2821 87.7509
" />
<path d="M151.1078 87.3379
L152.2046 87.4970
" />
<path d="M150.0000 87.2750
L151.1078 87.3379
" />
<path d="M148.8897 87.3089
L150.0000 87.2750
" />
<path d="M147.7853 87.4396
L148.8897 87.3089
" />
<path d="M146.6952 87.6663
L147.7853 87.4396
" />
<path d="M145.6278 87.9876
L146.6952 87.6663
" />
<path d="M144.5914 88.4011
L145.6278 87.9876
" />
<path d="M143.5938 88.9040
L144.5914 88.4011
" />
<path d="M142.6427 89.4927
L143.5938 88.9040
" />
<path d="M141.7455 90.1627
L142.6427 89.4927
" />
<path d="M140.9093 90.9093
L141.7455 90.1627
" />
<path d="M140.1404 91.7268
L140.9093 90.9093
" />
<path d="M139.4449 92.6092
L140.1404 91.7268
" />
<path d="M138.8283 93.5500
L139.4449 92.6092
" />
<path d="M138.2954 94.5421
L138.8283 93.5500
" />
<path d="M137.8506 95.5780
L138.2954 94.5421
" />
<path d="M137.4973 96.6499
L137.8506 95.5780
" />
<path d="M137.2385 97.7498
L137.4973 96.6499
" />
<path d="M137.0764 98.8693
L137.2385 97.7498
" />
<path d="M137.0125 100.0000
L137.0764 98.8693
" />
<path d="M137.0474 101.1332
L137.0125 100.0000
" />
<path d="M137.1811 102.2603
L137.0474 101.1332
" />
<path d="M137.4128 103.3727
L137.1811 102.2603
" />
<path d="M137.7409 104.4619
L137.4128 103.3727
" />
<path d="M138.1632 105.5196
L137.7409 104.4619
" />
<path d="M138.6767 106.5375
L138.1632 105.5196
" />
<path d="M139.2776 107.5079
L138.6767 106.5375
" />
<path d="M139.9616 108.4232
L139.2776 107.5079
" />
<path d="M140.7236 109.2764
L139.9616 108.4232
" />
<path d="M141.5581 110.0607
L140.7236 109.2764
" />
<path d="M142.4587 110.7701
L141.5581 110.0607
" />
<path d="M143.4187 111.3991
L142.4587 110.7701
" />
<path d="M144.4311 111.9425
L143.4187 111.3991
" />
<path d="M145.4882 112.3961
L144.4311 111.9425
" />
<path d="M146.5820 112.7563
L145.4882 112.3961
" />
<path d="M147.7042 113.0200
L146.5820 112.7563
" />
<path d="M148.8465 113.1851
L147.7042 113.0200
" />
<path d="M150.0000 113.2500
L148.8465 113.1851
" />
<path d="M151.1561 113.2141
L150.0000 113.2500
" />
<path d="M152.3059 113.0774
L151.1561 113.2141
" />
<path d="M153.4407 112.8408
L152.3059 113.0774
" />
<path d="M154.5517 112.5057
L153.4407 112.8408
" />
<path d="M155.6305 112.0747
L154.5517 112.5057
" />
<path d="M156.6687 111.5506
L155.6305 112.0747
" />
<path d="M157.6584 110.9374
L156.6687 111.5506
" />
<path d="M158.5919 110.2395
L157.6584 110.9374
" />
<path d="M159.4620 109.4620
L158.5919 110.2395
" />
<path d="M160.2618 108.6107
L159.4620 109.4620
" />
<path d="M160.9852 107.6919
L160.2618 108.6107
" />
<path d="M161.6264 106.7125
L160.9852 107.6919
" />
<path d="M162.1804 105.6798
L161.6264 106.7125
" />
<path d="M162.6428 104.6016
L162.1804 105.6798
" />
<path d="M163.0098 103.4860
L162.6428 104.6016
" />
<path d="M163.2785 102.3414
L163.0098 103.4860
" />
<path d="M163.4466 101.1764
L163.2785 102.3414
" />
<path d="M163.5125 100.0000
L163.4466 101.1764
" />
<path d="M163.4756 98.8210
L163.5125 100.0000
" />
<path d="M163.3359 97.6485
L163.4756 98.8210
" />
<path d="M163.0943 96.4914
L163.3359 97.6485
" />
<path d="M162.7524 95.3585
L163.0943 96.4914
" />
<path d="M162.3126 94.2586
L162.7524 95.3585
" />
<path d="M161.7779 93.2000
L162.3126 94.2586
" />
<path d="M161.1524 92.1910
L161.7779 93.2000
" />
<path d="M160.4405 91.2393
L161.1524 92.1910
" />
<path d="M159.6476 90.3524
L160.4405 91.2393
" />
<path d="M158.7794 89.5371
L159.6476 90.3524
" />
<path d="M157.8425 88.7998
L158.7794 89.5371
" />
<path d="M156.8437 88.1463
L157.8425 88.7998
" />
<path d="M155.7908 87.5817
L156.8437 88.1463
" />
<path d="M154.6914 87.1105
L155.7908 87.5817
" />
<path d="M153.5539 86.7366
L154.6914 87.1105
" />
<path d="M152.3869 86.4630
L153.5539 86.7366
" />
<path d="M151.1993 86.2919
L152.3869 86.4630
" />
<path d="M150.0000 86.2250
L151.1993 86.2919
" />
<path d="M148.7982 86.2629
L150.0000 86.2250
" />
<path d="M147.6029 86.4055
L148.7982 86.2629
" />
<path d="M146.4234 86.6521
L147.6029 86.4055
" />
<path d="M145.2687 87.0009
L146.4234 86.6521
" />
<path d="M144.1476 87.4495
L145.2687 87.0009
" />
<path d="M143.0687 87.9947
L144.1476 87.4495
" />
<path d="M142.0404 88.6326
L143.0687 87.9947
" />
<path d="M141.0706 89.3584
L142.0404 88.6326
" />
<path d="M140.1668 90.1668
L141.0706 89.3584
" />
<path d="M139.3360 91.0519
L140.1668 90.1668
" />
<path d="M138.5848 92.0070
L139.3360 91.0519
" />
<path d="M137.9189 93.0250
L138.5848 92.0070
" />
<path d="M137.3438 94.0983
L137.9189 93.0250
" />
<path d="M136.8639 95.2188
L137.3438 94.0983
" />
<path d="M136.4831 96.3781
L136.8639 95.2188
" />
<path d="M136.2045 97.5675
L136.4831 96.3781
" />
<path d="M136.0304 98.7778
L136.2045 97.5675
" />
<path d="M135.9625 100.0000
L136.0304 98.7778
" />
<path d="M136.0014 101.2247
L135.9625 100.0000
" />
<path d="M136.1470 102.4427
L136.0014 101.2247
" />
<path d="M136.3986 103.6445
L136.1470 102.4427
" />
<path d="M136.7542 104.8211
L136.3986 103.6445
" />
<path d="M137.2116 105.9633
L136.7542 104.8211
" />
<path d="M137.7674 107.0625
L137.2116 105.9633
" />
<path d="M138.4175 108.1101
L137.7674 107.0625
" />
<path d="M139.1573 109.0981
L138.4175 108.1101
" />
<path d="M139.9812 110.0188
L139.1573 109.0981
" />
<path d="M140.8831 110.8651
L139.9812 110.0188
" />
<path d="M141.8564 111.6303
L140.8831 110.8651
" />
<path d="M142.8937 112.3084
L141.8564 111.6303
" />
<path d="M143.9874 112.8941
L142.8937 112.3084
" />
<path d="M145.1291 113.3828
L143.9874 112.8941
" />
<path d="M146.3102 113.7705
L145.1291 113.3828
" />
<path d="M147.5219 114.0540
L146.3102 113.7705
" />
<path d="M148.7549 114.2311
L147.5219 114.0540
" />
<path d="M150.0000 114.3000
L148.7549 114.2311
" />
<path d="M151.2476 114.2601
L150.0000 114.3000
" />
<path d="M152.4882 114.1115
L151.2476 114.2601
" />
<path d="M153.7124 113.8550
L152.4882 114.1115
" />
<path d="M154.9108 113.4924
L153.7124 113.8550
" />
<path d="M156.0743 113.0263
L154.9108 113.4924
" />
<path d="M157.1937 112.4599
L156.0743 113.0263
" />
<path d="M158.2607 111.7975
L157.1937 112.4599
" />
<path d="M159.2669 111.0438
L158.2607 111.7975
" />
<path d="M160.2044 110.2044
L159.2669 111.0438
" />
<path d="M161.0661 109.2856
L160.2044 110.2044
" />
<path d="M161.8453 108.2942
L161.0661 109.2856
" />
<path d="M162.5357 107.2375
L161.8453 108.2942
" />
<path d="M163.1320 106.1236
L162.5357 107.2375
" />
<path d="M163.6295 104.9607
L163.1320 106.1236
" />
<path d="M164.0240 103.7577
L163.6295 104.9607
" />
<path d="M164.3125 102.5237
L164.0240 103.7577
" />
<path d="M164.4926 101.2679
L164.3125 102.5237
" />
<path d="M164.5625 100.0000
L164.4926 101.2679
" />
<path d="M164.5216 98.7295
L164.5625 100.0000
" />
<path d="M164.3700 97.4662
L164.5216 98.7295
" />
<path d="M164.1086 96.2196
L164.3700 97.4662
" />
<path d="M163.7391 94.9994
L164.1086 96.2196
" />
<path d="M163.2642 93.8148
L163.7391 94.9994
" />
<path d="M162.6873 92.6750
L163.2642 93.8148
" />
<path d="M162.0125 91.5887
L162.6873 92.6750
" />
<path d="M161.2449 90.5644
L162.0125 91.5887
" />
<path d="M160.3901 89.6099
L161.2449 90.5644
" />
<path d="M159.4543 88.7328
L160.3901 89.6099
" />
<path d="M158.4447 87.9397
L159.4543 88.7328
" />
<path d="M157.3687 87.2369
L158.4447 87.9397
" />
<path d="M156.2345 86.6301
L157.3687 87.2369
" />
<path d="M155.0505 86.1239
L156.2345 86.6301
" />
<path d="M153.8257 85.7224
L155.0505 86.1239
" />
<path d="M152.5693 85.4289
L153.8257 85.7224
" />
<path d="M151.2908 85.2459
L152.5693 85.4289
" />
<path d="M150.0000 85.1750
L151.2908 85.2459
" />
<path d="M148.7066 85.2169
L150.0000 85.1750
" />
<path d="M147.4206 85.3715
L148.7066 85.2169
" />
<path d="M146.1517 85.6379
L147.4206 85.3715
" />
<path d="M144.9096 86.0142
L146.1517 85.6379
" />
<path d="M143.7039 86.4979
L144.9096 86.0142
" />
<path d="M142.5437 87.0854
L143.7039 86.4979
" />
<path d="M141.4382 87.7724
L142.5437 87.0854
" />
<path d="M140.3957 88.5540
L141.4382 87.7724
" />
<path d="M139.4243 89.4243
L140.3957 88.5540
" />
<path d="M138.5317 90.3769
L139.4243 89.4243
" />
<path d="M137.7247 91.4047
L138.5317 90.3769
" />
<path d="M137.0096 92.5000
L137.7247 91.4047
" />
<path d="M136.3922 93.6546
L137.0096 92.5000
" />
<path d="M135.8772 94.8597
L136.3922 93.6546
" />
<path d="M135.4689 96.1064
L135.8772 94.8597
" />
<path d="M135.1704 97.3851
L135.4689 96.1064
" />
<path d="M134.9844 98.6863
L135.1704 97.3851
" />
<path d="M134.9125 100.0000
L134.9844 98.6863
" />
<path d="M134.9554 101.3162
L134.9125 100.0000
" />
<path d="M135.1130 102.6250
L134.9554 101.3162
" />
<path d="M135.3843 103.9163
L135.1130 102.6250
" />
<path d="M135.7676 105.1802
L135.3843 103.9163
" />
<path d="M136.2600 106.4071
L135.7676 105.1802
" />
<path d="M136.8581 107.5875
L136.2600 106.4071
" />
<path d="M137.5574 108.7124
L136.8581 107.5875
" />
<path d="M138.3529 109.7730
L137.5574 108.7124
" />
<path d="M139.2387 110.7613
L138.3529 109.7730
" />
<path d="M140.2082 111.6694
L139.2387 110.7613
" />
<path d="M141.2542 112.4904
L140.2082 111.6694
" />
<path d="M142.3688 113.2177
L141.2542 112.4904
" />
<path d="M143.5436 113.8457
L142.3688 113.2177
" />
<path d="M144.7699 114.3695
L143.5436 113.8457
" />
<path d="M146.0384 114.7847
L144.7699 114.3695
" />
<path d="M147.3396 115.0881
L146.0384 114.7847
" />
<path d="M148.6634 115.2771
L147.3396 115.0881
" />
<path d="M150.0000 115.3500
L148.6634 115.2771
" />
<path d="M151.3391 115.3061
L150.0000 115.3500
" />
<path d="M152.6706 115.1455
L151.3391 115.3061
" />
<path d="M153.9842 114.8692
L152.6706 115.1455
" />
<path d="M155.2700 114.4791
L153.9842 114.8692
" />
<path d="M156.5180 113.9779
L155.2700 114.4791
" />
<path d="M157.7188 113.3693
L156.5180 113.9779
" />
<path d="M158.8629 112.6576
L157.7188 113.3693
" />
<path d="M159.9418 111.8482
L158.8629 112.6576
" />
<path d="M160.9469 110.9469
L159.9418 111.8482
" />
<path d="M161.8705 109.9605
L160.9469 110.9469
" />
<path d="M162.7054 108.8964
L161.8705 109.9605
" />
<path d="M163.4450 107.7625
L162.7054 108.8964
" />
<path d="M164.0836 106.5673
L163.4450 107.7625
" />
<path d="M164.6161 105.3198
L164.0836 106.5673
" />
<path d="M165.0383 104.0295
L164.6161 105.3198
" />
<path d="M165.3466 102.7060
L165.0383 104.0295
" />
<path d="M165.5386 101.3594
L165.3466 102.7060
" />
<path d="M165.6125 100.0000
L165.5386 101.3594
" />
<path d="M165.5676 98.6380
L165.6125 100.0000
" />
<path d="M165.4040 97.2839
L165.5676 98.6380
" />
<path d="M165.1228 95.9479
L165.4040 97.2839
" />
<path d="M164.7258 94.6403
L165.1228 95.9479
" />
<path d="M164.2158 93.3711
L164.7258 94.6403
" />
<path d="M163.5966 92.1500
L164.2158 93.3711
" />
<path d="M162.8726 90.9865
L163.5966 92.1500
" />
<path d="M162.0492 89.8895
L162.8726 90.9865
" />
<path d="M161.1325 88.8675
L162.0492 89.8895
" />
<path d="M160.1293 87.9284
L161.1325 88.8675
" />
<path d="M159.0470 87.0796
L160.1293 87.9284
" />
<path d="M157.8937 86.3276
L159.0470 87.0796
" />
<path d="M156.6782 85.6784
L157.8937 86.3276
" />
<path d="M155.4096 85.1372
L156.6782 85.6784
" />
<path d="M154.0974 84.7082
L155.4096 85.1372
" />
<path d="M152.7516 84.3949
L154.0974 84.7082
" />
<path d="M151.3823 84.1999
L152.7516 84.3949
" />
<path d="M150.0000 84.1250
L151.3823 84.1999
" />
<path d="M148.6151 84.1709
L150.0000 84.1250
" />
<path d="M147.2383 84.3375
L148.6151 84.1709
" />
<path d="M145.8799 84.6237
L147.2383 84.3375
" />
<path d="M144.5505 85.0276
L145.8799 84.6237
" />
<path d="M143.2601 85.5463
L144.5505 85.0276
" />
<path d="M142.0187 86.1761
L143.2601 85.5463
" />
<path d="M140.8359 86.9123
L142.0187 86.1761
" />
<path d="M139.7208 87.7497
L140.8359 86.9123
" />
<path d="M138.6819 88.6819
L139.7208 87.7497
" />
<path d="M137.7273 89.7020
L138.6819 88.6819
" />
<path d="M136.8646 90.8025
L137.7273 89.7020
" />
<path d="M136.1003 91.9750
L136.8646 90.8025
" />
<path d="M135.4405 93.2108
L136.1003 91.9750
" />
<path d="M134.8905 94.5006
L135.4405 93.2108
" />
<path d="M134.4546 95.8346
L134.8905 94.5006
" />
<path d="M134.1364 97.2028
L134.4546 95.8346
" />
<path d="M133.9384 98.5948
L134.1364 97.2028
" />
<path d="M133.8625 100.0000
L133.9384 98.5948
" />
<path d="M133.9094 101.4077
L133.8625 100.0000
" />
<path d="M134.0789 102.8073
L133.9094 101.4077
" />
<path d="M134.3701 104.1880
L134.0789 102.8073
" />
<path d="M134.7809 105.5393
L134.3701 104.1880
" />
<path d="M135.3084 106.8508
L134.7809 105.5393
" />
<path d="M135.9487 108.1125
L135.3084 106.8508
" />
<path d="M136.6973 109.3146
L135.9487 108.1125
" />
<path d="M137.5486 110.4480
L136.6973 109.3146
" />
<path d="M138.4963 111.5037
L137.5486 110.4480
" />
<path d="M139.5333 112.4738
L138.4963 111.5037
" />
<path d="M140.6519 113.3505
L139.5333 112.4738
" />
<path d="M141.8438 114.1270
L140.6519 113.3505
" />
<path d="M143.0999 114.7974
L141.8438 114.1270
" />
<path d="M144.4108 115.3561
L143.0999 114.7974
" />
<path d="M145.7667 115.7989
L144.4108 115.3561
" />
<path d="M147.1572 116.1221
L145.7667 115.7989
" />
<path d="M148.5719 116.3231
L147.1572 116.1221
" />
<path d="M150.0000 116.4000
L148.5719 116.3231
" />
<path d="M151.4306 116.3521
L150.0000 116.4000
" />
<path d="M152.8529 116.1796
L151.4306 116.3521
" />
<path d="M154.2560 115.8834
L152.8529 116.1796
" />
<path d="M155.6291 115.4658
L154.2560 115.8834
" />
<path d="M156.9618 114.9295
L155.6291 115.4658
" />
<path d="M158.2438 114.2786
L156.9618 114.9295
" />
<path d="M159.4652 113.5177
L158.2438 114.2786
" />
<path d="M160.6167 112.6525
L159.4652 113.5177
" />
<path d="M161.6894 111.6894
L160.6167 112.6525
" />
<path d="M162.6748 110.6355
L161.6894 111.6894
" />
<path d="M163.5655 109.4987
L162.6748 110.6355
" />
<path d="M164.3544 108.2875
L163.5655 109.4987
" />
<path d="M165.0353 107.0111
L164.3544 108.2875
" />
<path d="M165.6028 105.6790
L165.0353 107.0111
" />
<path d="M166.0525 104.3012
L165.6028 105.6790
" />
<path d="M166.3806 102.8883
L166.0525 104.3012
" />
<path d="M166.5846 101.4510
L166.3806 102.8883
" />
<path d="M166.6625 100.0000
L166.5846 101.4510
" />
<path d="M166.6136 98.5465
L166.6625 100.0000
" />
<path d="M166.4381 97.1015
L166.6136 98.5465
" />
<path d="M166.1370 95.6761
L166.4381 97.1015
" />
<path d="M165.7124 94.2811
L166.1370 95.6761
" />
<path d="M165.1674 92.9273
L165.7124 94.2811
" />
<path d="M164.5059 91.6250
L165.1674 92.9273
" />
<path d="M163.7327 90.3842
L164.5059 91.6250
" />
<path d="M162.8536 89.2146
L163.7327 90.3842
" />
<path d="M161.8750 88.1250
L162.8536 89.2146
" />
<path d="M160.8042 87.1241
L161.8750 88.1250
" />
<path d="M159.6492 86.2195
L160.8042 87.1241
" />
<path d="M158.4187 85.4183
L159.6492 86.2195
" />
<path d="M157.1220 84.7268
L158.4187 85.4183
" />
<path d="M155.7687 84.1505
L157.1220 84.7268
" />
<path d="M154.3692 83.6940
L155.7687 84.1505
" />
<path d="M152.9339 83.3609
L154.3692 83.6940
" />
<path d="M151.4738 83.1539
L152.9339 83.3609
" />
<path d="M150.0000 83.0750
L151.4738 83.1539
" />
<path d="M148.5236 83.1249
L150.0000 83.0750
" />
<path d="M147.0559 83.3034
L148.5236 83.1249
" />
<path d="M145.6082 83.6094
L147.0559 83.3034
" />
<path d="M144.1914 84.0409
L145.6082 83.6094
" />
<path d="M142.8164 84.5947
L144.1914 84.0409
" />
<path d="M141.4938 85.2667
L142.8164 84.5947
" />
<path d="M140.2337 86.0522
L141.4938 85.2667
" />
<path d="M139.0458 86.9453
L140.2337 86.0522
" />
<path d="M137.9394 87.9394
L139.0458 86.9453
" />
<path d="M136.9230 89.0271
L137.9394 87.9394
" />
<path d="M136.0044 90.2002
L136.9230 89.0271
" />
<path d="M135.1910 91.4500
L136.0044 90.2002
" />
<path d="M134.4889 92.7671
L135.1910 91.4500
" />
<path d="M133.9038 94.1415
L134.4889 92.7671
" />
<path d="M133.4404 95.5629
L133.9038 94.1415
" />
<path d="M133.1023 97.0205
L133.4404 95.5629
" />
<path d="M132.8924 98.5033
L133.1023 97.0205
" />
<path d="M132.8125 100.0000
L132.8924 98.5033
" />
<path d="M132.8634 101.4993
L132.8125 100.0000
" />
<path d="M133.0449 102.9896
L132.8634 101.4993
" />
<path d="M133.3559 104.4598
L133.0449 102.9896
" />
<path d="M133.7942 105.8984
L133.3559 104.4598
" />
<path d="M134.3567 107.2946
L133.7942 105.8984
" />
<path d="M135.0394 108.6375
L134.3567 107.2946
" />
<path d="M135.8372 109.9169
L135.0394 108.6375
" />
<path d="M136.7442 111.1229
L135.8372 109.9169
" />
<path d="M137.7538 112.2462
L136.7442 111.1229
" />
<path d="M138.8583 113.2781
L137.7538 112.2462
" />
<path d="M140.0496 114.2106
L138.8583 113.2781
" />
<path d="M141.3187 115.0364
L140.0496 114.2106
" />
<path d="M142.6561 115.7490
L141.3187 115.0364
" />
<path d="M144.0517 116.3428
L142.6561 115.7490
" />
<path d="M145.4949 116.8131
L144.0517 116.3428
" />
<path d="M146.9749 117.1562
L145.4949 116.8131
" />
<path d="M148.4804 117.3691
L146.9749 117.1562
" />
<path d="M150.0000 117.4500
L148.4804 117.3691
" />
<path d="M151.5221 117.3981
L150.0000 117.4500
" />
<path d="M153.0352 117.2136
L151.5221 117.3981
" />
<path d="M154.5277 116.8977
L153.0352 117.2136
" />
<path d="M155.9882 116.4525
L154.5277 116.8977
" />
<path d="M157.4055 115.8812
L155.9882 116.4525
" />
<path d="M158.7687 115.1879
L157.4055 115.8812
" />
<path d="M160.0675 114.3778
L158.7687 115.1879
" />
<path d="M161.2916 113.4568
L160.0675 114.3778
" />
<path d="M162.4318 112.4318
L161.2916 113.4568
" />
<path d="M163.4792 111.3104
L162.4318 112.4318
" />
<path d="M164.4256 110.1009
L163.4792 111.3104
" />
<path d="M165.2637 108.8125
L164.4256 110.1009
" />
<path d="M165.9869 107.4548
L165.2637 108.8125
" />
<path d="M166.5895 106.0381
L165.9869 107.4548
" />
<path d="M167.0667 104.5730
L166.5895 106.0381
" />
<path d="M167.4147 103.0707
L167.0667 104.5730
" />
<path d="M167.6306 101.5425
L167.4147 103.0707
" />
<path d="M167.7125 100.0000
L167.6306 101.5425
" />
<path d="M167.6596 98.4550
L167.7125 100.0000
" />
<path d="M167.4721 96.9192
L167.6596 98.4550
" />
<path d="M167.1512 95.4043
L167.4721 96.9192
" />
<path d="M166.6991 93.9220
L167.1512 95.4043
" />
<path d="M166.1191 92.4836
L166.6991 93.9220
" />
<path d="M165.4153 91.1000
L166.1191 92.4836
" />
<path d="M164.5929 89.7820
L165.4153 91.1000
" />
<path d="M163.6579 88.5396
L164.5929 89.7820
" />
<path d="M162.6174 87.3826
L163.6579 88.5396
" />
<path d="M161.4791 86.3197
L162.6174 87.3826
" />
<path d="M160.2515 85.3594
L161.4791 86.3197
" />
<path d="M158.9437 84.5090
L160.2515 85.3594
" />
<path d="M157.5657 83.7752
L158.9437 84.5090
" />
<path d="M156.1279 83.1638
L157.5657 83.7752
" />
<path d="M154.6409 82.6797
L156.1279 83.1638
" />
<path d="M153.1163 82.3268
L154.6409 82.6797
" />
<path d="M151.5654 82.1079
L153.1163 82.3268
" />
<path d="M150.0000 82.0250
L151.5654 82.1079
" />
<path d="M148.4321 82.0789
L150.0000 82.0250
" />
<path d="M146.8736 82.2694
L148.4321 82.0789
" />
<path d="M145.3364 82.5952
L146.8736 82.2694
" />
<path d="M143.8322 83.0542
L145.3364 82.5952
" />
<path d="M142.3726 83.6430
L143.8322 83.0542
" />
<path d="M140.9688 84.3574
L142.3726 83.6430
" />
<path d="M139.6314 85.1921
L140.9688 84.3574
" />
<path d="M138.3709 86.1410
L139.6314 85.1921
" />
<path d="M137.1969 87.1969
L138.3709 86.1410
" />
<path d="M136.1186 88.3522
L137.1969 87.1969
" />
<path d="M135.1443 89.5980
L136.1186 88.3522
" />
<path d="M134.2816 90.9250
L135.1443 89.5980
" />
<path d="M133.5373 92.3233
L134.2816 90.9250
" />
<path d="M132.9172 93.7824
L133.5373 92.3233
" />
<path d="M132.4262 95.2911
L132.9172 93.7824
" />
<path d="M132.0683 96.8382
L132.4262 95.2911
" />
<path d="M131.8464 98.4118
L132.0683 96.8382
" />
<path d="M131.7625 100.0000
L131.8464 98.4118
" />
<path d="M131.8174 101.5908
L131.7625 100.0000
" />
<path d="M132.0108 103.1720
L131.8174 101.5908
" />
<path d="M132.3417 104.7315
L132.0108 103.1720
" />
<path d="M132.8075 106.2575
L132.3417 104.7315
" />
<path d="M133.4051 107.7383
L132.8075 106.2575
" />
<path d="M134.1301 109.1625
L133.4051 107.7383
" />
<path d="M134.9771 110.5192
L134.1301 109.1625
" />
<path d="M135.9399 111.7978
L134.9771 110.5192
" />
<path d="M137.0113 112.9887
L135.9399 111.7978
" />
<path d="M138.1834 114.0824
L137.0113 112.9887
" />
<path d="M139.4474 115.0707
L138.1834 114.0824
" />
<path d="M140.7937 115.9457
L139.4474 115.0707
" />
<path d="M142.2124 116.7006
L140.7937 115.9457
" />
<path d="M143.6926 117.3295
L142.2124 116.7006
" />
<path d="M145.2232 117.8274
L143.6926 117.3295
" />
<path d="M146.7926 118.1902
L145.2232 117.8274
" />
<path d="M148.3889 118.4151
L146.7926 118.1902
" />
<path d="M150.0000 118.5000
L148.3889 118.4151
" />
<path d="M151.6137 118.4441
L150.0000 118.5000
" />
<path d="M153.2176 118.2477
L151.6137 118.4441
" />
<path d="M154.7995 117.9119
L153.2176 118.2477
" />
<path d="M156.3473 117.4391
L154.7995 117.9119
" />
<path d="M157.8493 116.8328
L156.3473 117.4391
" />
<path d="M159.2937 116.0972
L157.8493 116.8328
" />
<path d="M160.6697 115.2379
L159.2937 116.0972
" />
<path d="M161.9666 114.2612
L160.6697 115.2379
" />
<path d="M163.1743 113.1743
L161.9666 114.2612
" />
<path d="M164.2835 111.9853
L163.1743 113.1743
" />
<path d="M165.2857 110.7032
L164.2835 111.9853
" />
<path d="M166.1730 109.3375
L165.2857 110.7032
" />
<path d="M166.9385 107.8986
L166.1730 109.3375
" />
<path d="M167.5762 106.3972
L166.9385 107.8986
" />
<path d="M168.0809 104.8448
L167.5762 106.3972
" />
<path d="M168.4487 103.2530
L168.0809 104.8448
" />
<path d="M168.6766 101.6340
L168.4487 103.2530
" />
<path d="M168.7625 100.0000
L168.6766 101.6340
" />
<path d="M168.7056 98.3635
L168.7625 100.0000
" />
<path d="M168.5062 96.7369
L168.7056 98.3635
" />
<path d="M168.1654 95.1326
L168.5062 96.7369
" />
<path d="M167.6858 93.5629
L168.1654 95.1326
" />
<path d="M167.0707 92.0398
L167.6858 93.5629
" />
<path d="M166.3246 90.5750
L167.0707 92.0398
" />
<path d="M165.4530 89.1797
L166.3246 90.5750
" />
<path d="M164.4623 87.8647
L165.4530 89.1797
" />
<path d="M163.3599 86.6401
L164.4623 87.8647
" />
<path d="M162.1540 85.5154
L163.3599 86.6401
" />
<path d="M160.8537 84.4993
L162.1540 85.5154
" />
<path d="M159.4688 83.5996
L160.8537 84.4993
" />
<path d="M158.0095 82.8236
L159.4688 83.5996
" />
<path d="M156.4870 82.1772
L158.0095 82.8236
" />
<path d="M154.9127 81.6655
L156.4870 82.1772
" />
<path d="M153.2986 81.2928
L154.9127 81.6655
" />
<path d="M151.6569 81.0619
L153.2986 81.2928
" />
<path d="M150.0000 80.9750
L151.6569 81.0619
" />
<path d="M148.3406 81.0329
L150.0000 80.9750
" />
<path d="M146.6913 81.2353
L148.3406 81.0329
" />
<path d="M145.0646 81.5810
L146.6913 81.2353
" />
<path d="M143.4731 82.0675
L145.0646 81.5810
" />
<path d="M141.9289 82.6914
L143.4731 82.0675
" />
<path d="M140.4437 83.4481
L141.9289 82.6914
" />
<path d="M139.0292 84.3320
L140.4437 83.4481
" />
<path d="M137.6960 85.3366
L139.0292 84.3320
" />
<path d="M136.4545 86.4545
L137.6960 85.3366
" />
<path d="M135.3143 87.6772
L136.4545 86.4545
" />
<path d="M134.2842 88.9957
L135.3143 87.6772
" />
<path d="M133.3723 90.4000
L134.2842 88.9957
" />
<path d="M132.5857 91.8796
L133.3723 90.4000
" />
<path d="M131.9305 93.4232
L132.5857 91.8796
" />
<path d="M131.4120 95.0194
L131.9305 93.4232
" />
<path d="M131.0342 96.6558
L131.4120 95.0194
" />
<path d="M130.8004 98.3203
L131.0342 96.6558
" />
<path d="M130.7125 100.0000
L130.8004 98.3203
" />
<path d="M130.7714 101.6823
L130.7125 100.0000
" />
<path d="M130.9768 103.3543
L130.7714 101.6823
" />
<path d="M131.3274 105.0033
L130.9768 103.3543
" />
<path d="M131.8209 106.6167
L131.3274 105.0033
" />
<path d="M132.4535 108.1821
L131.8209 106.6167
" />
<path d="M133.2208 109.6875
L132.4535 108.1821
" />
<path d="M134.1170 111.1214
L133.2208 109.6875
" />
<path d="M135.1355 112.4728
L134.1170 111.1214
" />
<path d="M136.2689 113.7311
L135.1355 112.4728
" />
<path d="M137.5085 114.8868
L136.2689 113.7311
" />
<path d="M138.8451 115.9308
L137.5085 114.8868
" />
<path d="M140.2687 116.8550
L138.8451 115.9308
" />
<path d="M141.7686 117.6522
L140.2687 116.8550
" />
<path d="M143.3335 118.3162
L141.7686 117.6522
" />
<path d="M144.9514 118.8416
L143.3335 118.3162
" />
<path d="M146.6102 119.2243
L144.9514 118.8416
" />
<path d="M148.2974 119.4611
L146.6102 119.2243
" />
<path d="M150.0000 119.5500
L148.2974 119.4611
" />
</g> 
</svg>
