<?xml version="1.0" standalone="no"?>
 <!DOCTYPE svg PUBLIC "-//W3C//DTD SVG 1.1//EN" 
 "http://www.w3.org/Graphics/SVG/1.1/DTD/svg11.dtd"> 
<svg
  xmlns:svg="http://www.w3.org/2000/svg"
  xmlns="http://www.w3.org/2000/svg"
  xmlns:xlink="http://www.w3.org/1999/xlink"
  version="1.1"
  width="297.0022mm" height="210.0072mm" viewBox="0.0000 0.0000 297.0022 210.0072">
<title>SVG Image created as -coil.svg date 2024/06/27 17:56:29 </title>
  <desc>Image generated by PCBNEW </desc>
<g style="fill:#000000; fill-opacity:1.0000;stroke:#000000; stroke-opacity:1.0000;
stroke-linecap:round; stroke-linejoin:round;"
 transform="translate(0 0) scale(1 1)">
</g>
<g style="fill:none; 
stroke:#000000; stroke-width:0.9000; stroke-opacity:1; 
stroke-linecap:round; stroke-linejoin:round;">
<path d="M0.0933 -1.0668
L0.0000 -1.0500
" />
<path d="M0.1896 -1.0751
L0.0933 -1.0668
" />
<path d="M0.2879 -1.0746
L0.1896 -1.0751
" />
<path d="M0.3876 -1.0650
L0.2879 -1.0746
" />
<path d="M0.4878 -1.0460
L0.3876 -1.0650
" />
<path d="M0.5875 -1.0176
L0.4878 -1.0460
" />
<path d="M0.6859 -0.9796
L0.5875 -1.0176
" />
<path d="M0.7821 -0.9320
L0.6859 -0.9796
" />
<path d="M0.8750 -0.8750
L0.7821 -0.9320
" />
<path d="M0.9639 -0.8088
L0.8750 -0.8750
" />
<path d="M1.0478 -0.7337
L0.9639 -0.8088
" />
<path d="M1.1258 -0.6500
L1.0478 -0.7337
" />
<path d="M1.1971 -0.5582
L1.1258 -0.6500
" />
<path d="M1.2608 -0.4589
L1.1971 -0.5582
" />
<path d="M1.3161 -0.3526
L1.2608 -0.4589
" />
<path d="M1.3623 -0.2402
L1.3161 -0.3526
" />
<path d="M1.3988 -0.1224
L1.3623 -0.2402
" />
<path d="M1.4250 0.0000
L1.3988 -0.1224
" />
<path d="M1.4403 0.1260
L1.4250 0.0000
" />
<path d="M1.4444 0.2547
L1.4403 0.1260
" />
<path d="M1.4368 0.3850
L1.4444 0.2547
" />
<path d="M1.4174 0.5159
L1.4368 0.3850
" />
<path d="M1.3859 0.6463
L1.4174 0.5159
" />
<path d="M1.3423 0.7750
L1.3859 0.6463
" />
<path d="M1.2868 0.9010
L1.3423 0.7750
" />
<path d="M1.2193 1.0231
L1.2868 0.9010
" />
<path d="M1.1402 1.1402
L1.2193 1.0231
" />
<path d="M1.0499 1.2512
L1.1402 1.1402
" />
<path d="M0.9488 1.3550
L1.0499 1.2512
" />
<path d="M0.8375 1.4506
L0.9488 1.3550
" />
<path d="M0.7167 1.5369
L0.8375 1.4506
" />
<path d="M0.5871 1.6131
L0.7167 1.5369
" />
<path d="M0.4497 1.6783
L0.5871 1.6131
" />
<path d="M0.3053 1.7316
L0.4497 1.6783
" />
<path d="M0.1551 1.7724
L0.3053 1.7316
" />
<path d="M0.0000 1.8000
L0.1551 1.7724
" />
<path d="M-0.1587 1.8139
L0.0000 1.8000
" />
<path d="M-0.3198 1.8137
L-0.1587 1.8139
" />
<path d="M-0.4820 1.7990
L-0.3198 1.8137
" />
<path d="M-0.6441 1.7698
L-0.4820 1.7990
" />
<path d="M-0.8047 1.7258
L-0.6441 1.7698
" />
<path d="M-0.9625 1.6671
L-0.8047 1.7258
" />
<path d="M-1.1161 1.5939
L-0.9625 1.6671
" />
<path d="M-1.2641 1.5066
L-1.1161 1.5939
" />
<path d="M-1.4054 1.4054
L-1.2641 1.5066
" />
<path d="M-1.5385 1.2909
L-1.4054 1.4054
" />
<path d="M-1.6622 1.1639
L-1.5385 1.2909
" />
<path d="M-1.7754 1.0250
L-1.6622 1.1639
" />
<path d="M-1.8768 0.8752
L-1.7754 1.0250
" />
<path d="M-1.9655 0.7154
L-1.8768 0.8752
" />
<path d="M-2.0405 0.5468
L-1.9655 0.7154
" />
<path d="M-2.1009 0.3704
L-2.0405 0.5468
" />
<path d="M-2.1460 0.1877
L-2.1009 0.3704
" />
<path d="M-2.1750 0.0000
L-2.1460 0.1877
" />
<path d="M-2.1875 -0.1914
L-2.1750 0.0000
" />
<path d="M-2.1830 -0.3849
L-2.1875 -0.1914
" />
<path d="M-2.1613 -0.5791
L-2.1830 -0.3849
" />
<path d="M-2.1221 -0.7724
L-2.1613 -0.5791
" />
<path d="M-2.0656 -0.9632
L-2.1221 -0.7724
" />
<path d="M-1.9919 -1.1500
L-2.0656 -0.9632
" />
<path d="M-1.9011 -1.3312
L-1.9919 -1.1500
" />
<path d="M-1.7938 -1.5052
L-1.9011 -1.3312
" />
<path d="M-1.6705 -1.6705
L-1.7938 -1.5052
" />
<path d="M-1.5320 -1.8257
L-1.6705 -1.6705
" />
<path d="M-1.3790 -1.9694
L-1.5320 -1.8257
" />
<path d="M-1.2125 -2.1001
L-1.3790 -1.9694
" />
<path d="M-1.0337 -2.2167
L-1.2125 -2.1001
" />
<path d="M-0.8436 -2.3179
L-1.0337 -2.2167
" />
<path d="M-0.6438 -2.4027
L-0.8436 -2.3179
" />
<path d="M-0.4356 -2.4702
L-0.6438 -2.4027
" />
<path d="M-0.2204 -2.5195
L-0.4356 -2.4702
" />
<path d="M0.0000 -2.5500
L-0.2204 -2.5195
" />
<path d="M0.2241 -2.5610
L0.0000 -2.5500
" />
<path d="M0.4500 -2.5523
L0.2241 -2.5610
" />
<path d="M0.6762 -2.5235
L0.4500 -2.5523
" />
<path d="M0.9007 -2.4745
L0.6762 -2.5235
" />
<path d="M1.1217 -2.4055
L0.9007 -2.4745
" />
<path d="M1.3375 -2.3166
L1.1217 -2.4055
" />
<path d="M1.5463 -2.2083
L1.3375 -2.3166
" />
<path d="M1.7462 -2.0811
L1.5463 -2.2083
" />
<path d="M1.9357 -1.9357
L1.7462 -2.0811
" />
<path d="M2.1130 -1.7730
L1.9357 -1.9357
" />
<path d="M2.2766 -1.5941
L2.1130 -1.7730
" />
<path d="M2.4249 -1.4000
L2.2766 -1.5941
" />
<path d="M2.5565 -1.1921
L2.4249 -1.4000
" />
<path d="M2.6703 -0.9719
L2.5565 -1.1921
" />
<path d="M2.7650 -0.7409
L2.6703 -0.9719
" />
<path d="M2.8395 -0.5007
L2.7650 -0.7409
" />
<path d="M2.8931 -0.2531
L2.8395 -0.5007
" />
<path d="M2.9250 0.0000
L2.8931 -0.2531
" />
<path d="M2.9346 0.2567
L2.9250 0.0000
" />
<path d="M2.9216 0.5152
L2.9346 0.2567
" />
<path d="M2.8857 0.7732
L2.9216 0.5152
" />
<path d="M2.8269 1.0289
L2.8857 0.7732
" />
<path d="M2.7454 1.2802
L2.8269 1.0289
" />
<path d="M2.6414 1.5250
L2.7454 1.2802
" />
<path d="M2.5155 1.7614
L2.6414 1.5250
" />
<path d="M2.3684 1.9873
L2.5155 1.7614
" />
<path d="M2.2009 2.2009
L2.3684 1.9873
" />
<path d="M2.0141 2.4003
L2.2009 2.2009
" />
<path d="M1.8092 2.5837
L2.0141 2.4003
" />
<path d="M1.5875 2.7496
L1.8092 2.5837
" />
<path d="M1.3506 2.8964
L1.5875 2.7496
" />
<path d="M1.1002 3.0227
L1.3506 2.8964
" />
<path d="M0.8379 3.1272
L1.1002 3.0227
" />
<path d="M0.5658 3.2088
L0.8379 3.1272
" />
<path d="M0.2858 3.2667
L0.5658 3.2088
" />
<path d="M0.0000 3.3000
L0.2858 3.2667
" />
<path d="M-0.2894 3.3082
L0.0000 3.3000
" />
<path d="M-0.5803 3.2909
L-0.2894 3.3082
" />
<path d="M-0.8703 3.2479
L-0.5803 3.2909
" />
<path d="M-1.1572 3.1793
L-0.8703 3.2479
" />
<path d="M-1.4387 3.0852
L-1.1572 3.1793
" />
<path d="M-1.7125 2.9661
L-1.4387 3.0852
" />
<path d="M-1.9764 2.8227
L-1.7125 2.9661
" />
<path d="M-2.2283 2.6556
L-1.9764 2.8227
" />
<path d="M-2.4660 2.4660
L-2.2283 2.6556
" />
<path d="M-2.6875 2.2551
L-2.4660 2.4660
" />
<path d="M-2.8909 2.0242
L-2.6875 2.2551
" />
<path d="M-3.0744 1.7750
L-2.8909 2.0242
" />
<path d="M-3.2363 1.5091
L-3.0744 1.7750
" />
<path d="M-3.3751 1.2284
L-3.2363 1.5091
" />
<path d="M-3.4894 0.9350
L-3.3751 1.2284
" />
<path d="M-3.5781 0.6309
L-3.4894 0.9350
" />
<path d="M-3.6403 0.3185
L-3.5781 0.6309
" />
<path d="M-3.6750 0.0000
L-3.6403 0.3185
" />
<path d="M-3.6818 -0.3221
L-3.6750 0.0000
" />
<path d="M-3.6602 -0.6454
L-3.6818 -0.3221
" />
<path d="M-3.6101 -0.9673
L-3.6602 -0.6454
" />
<path d="M-3.5317 -1.2854
L-3.6101 -0.9673
" />
<path d="M-3.4251 -1.5971
L-3.5317 -1.2854
" />
<path d="M-3.2909 -1.9000
L-3.4251 -1.5971
" />
<path d="M-3.1298 -2.1915
L-3.2909 -1.9000
" />
<path d="M-2.9429 -2.4694
L-3.1298 -2.1915
" />
<path d="M-2.7312 -2.7312
L-2.9429 -2.4694
" />
<path d="M-2.4962 -2.9748
L-2.7312 -2.7312
" />
<path d="M-2.2393 -3.1981
L-2.4962 -2.9748
" />
<path d="M-1.9625 -3.3991
L-2.2393 -3.1981
" />
<path d="M-1.6676 -3.5761
L-1.9625 -3.3991
" />
<path d="M-1.3567 -3.7274
L-1.6676 -3.5761
" />
<path d="M-1.0320 -3.8516
L-1.3567 -3.7274
" />
<path d="M-0.6960 -3.9474
L-1.0320 -3.8516
" />
<path d="M-0.3512 -4.0138
L-0.6960 -3.9474
" />
<path d="M0.0000 -4.0500
L-0.3512 -4.0138
" />
<path d="M0.3548 -4.0553
L0.0000 -4.0500
" />
<path d="M0.7105 -4.0295
L0.3548 -4.0553
" />
<path d="M1.0644 -3.9724
L0.7105 -4.0295
" />
<path d="M1.4137 -3.8841
L1.0644 -3.9724
" />
<path d="M1.7556 -3.7650
L1.4137 -3.8841
" />
<path d="M2.0875 -3.6157
L1.7556 -3.7650
" />
<path d="M2.4066 -3.4370
L2.0875 -3.6157
" />
<path d="M2.7104 -3.2302
L2.4066 -3.4370
" />
<path d="M2.9964 -2.9964
L2.7104 -3.2302
" />
<path d="M3.2621 -2.7372
L2.9964 -2.9964
" />
<path d="M3.5053 -2.4544
L3.2621 -2.7372
" />
<path d="M3.7239 -2.1500
L3.5053 -2.4544
" />
<path d="M3.9160 -1.8261
L3.7239 -2.1500
" />
<path d="M4.0798 -1.4849
L3.9160 -1.8261
" />
<path d="M4.2139 -1.1291
L4.0798 -1.4849
" />
<path d="M4.3167 -0.7612
L4.2139 -1.1291
" />
<path d="M4.3874 -0.3838
L4.3167 -0.7612
" />
<path d="M4.4250 0.0000
L4.3874 -0.3838
" />
<path d="M4.4289 0.3875
L4.4250 0.0000
" />
<path d="M4.3988 0.7756
L4.4289 0.3875
" />
<path d="M4.3346 1.1614
L4.3988 0.7756
" />
<path d="M4.2364 1.5419
L4.3346 1.1614
" />
<path d="M4.1048 1.9141
L4.2364 1.5419
" />
<path d="M3.9404 2.2750
L4.1048 1.9141
" />
<path d="M3.7442 2.6217
L3.9404 2.2750
" />
<path d="M3.5174 2.9515
L3.7442 2.6217
" />
<path d="M3.2615 3.2615
L3.5174 2.9515
" />
<path d="M2.9782 3.5493
L3.2615 3.2615
" />
<path d="M2.6695 3.8125
L2.9782 3.5493
" />
<path d="M2.3375 4.0487
L2.6695 3.8125
" />
<path d="M1.9845 4.2559
L2.3375 4.0487
" />
<path d="M1.6132 4.4322
L1.9845 4.2559
" />
<path d="M1.2262 4.5761
L1.6132 4.4322
" />
<path d="M0.8263 4.6860
L1.2262 4.5761
" />
<path d="M0.4165 4.7610
L0.8263 4.6860
" />
<path d="M0.0000 4.8000
L0.4165 4.7610
" />
<path d="M-0.4202 4.8025
L0.0000 4.8000
" />
<path d="M-0.8407 4.7681
L-0.4202 4.8025
" />
<path d="M-1.2585 4.6968
L-0.8407 4.7681
" />
<path d="M-1.6702 4.5888
L-1.2585 4.6968
" />
<path d="M-2.0726 4.4447
L-1.6702 4.5888
" />
<path d="M-2.4625 4.2652
L-2.0726 4.4447
" />
<path d="M-2.8368 4.0514
L-2.4625 4.2652
" />
<path d="M-3.1925 3.8047
L-2.8368 4.0514
" />
<path d="M-3.5267 3.5267
L-3.1925 3.8047
" />
<path d="M-3.8366 3.2193
L-3.5267 3.5267
" />
<path d="M-4.1197 2.8846
L-3.8366 3.2193
" />
<path d="M-4.3734 2.5250
L-4.1197 2.8846
" />
<path d="M-4.5957 2.1430
L-4.3734 2.5250
" />
<path d="M-4.7846 1.7415
L-4.5957 2.1430
" />
<path d="M-4.9383 1.3232
L-4.7846 1.7415
" />
<path d="M-5.0553 0.8914
L-4.9383 1.3232
" />
<path d="M-5.1346 0.4492
L-5.0553 0.8914
" />
<path d="M-5.1750 0.0000
L-5.1346 0.4492
" />
<path d="M-5.1761 -0.4528
L-5.1750 0.0000
" />
<path d="M-5.1374 -0.9059
L-5.1761 -0.4528
" />
<path d="M-5.0590 -1.3556
L-5.1374 -0.9059
" />
<path d="M-4.9412 -1.7985
L-5.0590 -1.3556
" />
<path d="M-4.7845 -2.2311
L-4.9412 -1.7985
" />
<path d="M-4.5899 -2.6500
L-4.7845 -2.2311
" />
<path d="M-4.3586 -3.0519
L-4.5899 -2.6500
" />
<path d="M-4.0920 -3.4336
L-4.3586 -3.0519
" />
<path d="M-3.7919 -3.7919
L-4.0920 -3.4336
" />
<path d="M-3.4603 -4.1239
L-3.7919 -3.7919
" />
<path d="M-3.0997 -4.4268
L-3.4603 -4.1239
" />
<path d="M-2.7125 -4.6982
L-3.0997 -4.4268
" />
<path d="M-2.3015 -4.9356
L-2.7125 -4.6982
" />
<path d="M-1.8697 -5.1370
L-2.3015 -4.9356
" />
<path d="M-1.4203 -5.3005
L-1.8697 -5.1370
" />
<path d="M-0.9565 -5.4246
L-1.4203 -5.3005
" />
<path d="M-0.4819 -5.5081
L-0.9565 -5.4246
" />
<path d="M0.0000 -5.5500
L-0.4819 -5.5081
" />
<path d="M0.4855 -5.5496
L0.0000 -5.5500
" />
<path d="M0.9710 -5.5067
L0.4855 -5.5496
" />
<path d="M1.4526 -5.4213
L0.9710 -5.5067
" />
<path d="M1.9267 -5.2936
L1.4526 -5.4213
" />
<path d="M2.3896 -5.1244
L1.9267 -5.2936
" />
<path d="M2.8375 -4.9147
L2.3896 -5.1244
" />
<path d="M3.2670 -4.6658
L2.8375 -4.9147
" />
<path d="M3.6746 -4.3792
L3.2670 -4.6658
" />
<path d="M4.0570 -4.0570
L3.6746 -4.3792
" />
<path d="M4.4111 -3.7014
L4.0570 -4.0570
" />
<path d="M4.7340 -3.3148
L4.4111 -3.7014
" />
<path d="M5.0229 -2.9000
L4.7340 -3.3148
" />
<path d="M5.2755 -2.4600
L5.0229 -2.9000
" />
<path d="M5.4894 -1.9980
L5.2755 -2.4600
" />
<path d="M5.6627 -1.5173
L5.4894 -1.9980
" />
<path d="M5.7940 -1.0216
L5.6627 -1.5173
" />
<path d="M5.8817 -0.5146
L5.7940 -1.0216
" />
<path d="M5.9250 0.0000
L5.8817 -0.5146
" />
<path d="M5.9232 0.5182
L5.9250 0.0000
" />
<path d="M5.8760 1.0361
L5.9232 0.5182
" />
<path d="M5.7835 1.5497
L5.8760 1.0361
" />
<path d="M5.6460 2.0550
L5.7835 1.5497
" />
<path d="M5.4643 2.5480
L5.6460 2.0550
" />
<path d="M5.2395 3.0250
L5.4643 2.5480
" />
<path d="M4.9729 3.4821
L5.2395 3.0250
" />
<path d="M4.6665 3.9156
L4.9729 3.4821
" />
<path d="M4.3222 4.3222
L4.6665 3.9156
" />
<path d="M3.9424 4.6984
L4.3222 4.3222
" />
<path d="M3.5299 5.0412
L3.9424 4.6984
" />
<path d="M3.0875 5.3477
L3.5299 5.0412
" />
<path d="M2.6185 5.6153
L3.0875 5.3477
" />
<path d="M2.1262 5.8418
L2.6185 5.6153
" />
<path d="M1.6144 6.0250
L2.1262 5.8418
" />
<path d="M1.0867 6.1633
L1.6144 6.0250
" />
<path d="M0.5473 6.2553
L1.0867 6.1633
" />
<path d="M0.0000 6.3000
L0.5473 6.2553
" />
<path d="M-0.5509 6.2968
L0.0000 6.3000
" />
<path d="M-1.1012 6.2453
L-0.5509 6.2968
" />
<path d="M-1.6467 6.1457
L-1.1012 6.2453
" />
<path d="M-2.1832 5.9984
L-1.6467 6.1457
" />
<path d="M-2.7065 5.8041
L-2.1832 5.9984
" />
<path d="M-3.2125 5.5642
L-2.7065 5.8041
" />
<path d="M-3.6972 5.2801
L-3.2125 5.5642
" />
<path d="M-4.1567 4.9538
L-3.6972 5.2801
" />
<path d="M-4.5874 4.5874
L-4.1567 4.9538
" />
<path d="M-4.9857 4.1835
L-4.5874 4.5874
" />
<path d="M-5.3484 3.7450
L-4.9857 4.1835
" />
<path d="M-5.6725 3.2750
L-5.3484 3.7450
" />
<path d="M-5.9552 2.7770
L-5.6725 3.2750
" />
<path d="M-6.1941 2.2545
L-5.9552 2.7770
" />
<path d="M-6.3872 1.7114
L-6.1941 2.2545
" />
<path d="M-6.5326 1.1519
L-6.3872 1.7114
" />
<path d="M-6.6288 0.5799
L-6.5326 1.1519
" />
<path d="M-6.6750 0.0000
L-6.6288 0.5799
" />
<path d="M-6.6704 -0.5836
L-6.6750 0.0000
" />
<path d="M-6.6146 -1.1663
L-6.6704 -0.5836
" />
<path d="M-6.5079 -1.7438
L-6.6146 -1.1663
" />
<path d="M-6.3508 -2.3115
L-6.5079 -1.7438
" />
<path d="M-6.1440 -2.8650
L-6.3508 -2.3115
" />
<path d="M-5.8890 -3.4000
L-6.1440 -2.8650
" />
<path d="M-5.5873 -3.9123
L-5.8890 -3.4000
" />
<path d="M-5.2410 -4.3977
L-5.5873 -3.9123
" />
<path d="M-4.8525 -4.8525
L-5.2410 -4.3977
" />
<path d="M-4.4245 -5.2729
L-4.8525 -4.8525
" />
<path d="M-3.9601 -5.6556
L-4.4245 -5.2729
" />
<path d="M-3.4625 -5.9972
L-3.9601 -5.6556
" />
<path d="M-2.9354 -6.2951
L-3.4625 -5.9972
" />
<path d="M-2.3827 -6.5465
L-2.9354 -6.2951
" />
<path d="M-1.8085 -6.7494
L-2.3827 -6.5465
" />
<path d="M-1.2170 -6.9019
L-1.8085 -6.7494
" />
<path d="M-0.6126 -7.0024
L-1.2170 -6.9019
" />
<path d="M0.0000 -7.0500
L-0.6126 -7.0024
" />
<path d="M0.6163 -7.0439
L0.0000 -7.0500
" />
<path d="M1.2315 -6.9839
L0.6163 -7.0439
" />
<path d="M1.8408 -6.8701
L1.2315 -6.9839
" />
<path d="M2.4397 -6.7031
L1.8408 -6.8701
" />
<path d="M3.0235 -6.4839
L2.4397 -6.7031
" />
<path d="M3.5875 -6.2137
L3.0235 -6.4839
" />
<path d="M4.1274 -5.8945
L3.5875 -6.2137
" />
<path d="M4.6388 -5.5283
L4.1274 -5.8945
" />
<path d="M5.1177 -5.1177
L4.6388 -5.5283
" />
<path d="M5.5602 -4.6656
L5.1177 -5.1177
" />
<path d="M5.9627 -4.1752
L5.5602 -4.6656
" />
<path d="M6.3220 -3.6500
L5.9627 -4.1752
" />
<path d="M6.6349 -3.0939
L6.3220 -3.6500
" />
<path d="M6.8989 -2.5110
L6.6349 -3.0939
" />
<path d="M7.1116 -1.9056
L6.8989 -2.5110
" />
<path d="M7.2712 -1.2821
L7.1116 -1.9056
" />
<path d="M7.3760 -0.6453
L7.2712 -1.2821
" />
<path d="M7.4250 0.0000
L7.3760 -0.6453
" />
<path d="M7.4175 0.6489
L7.4250 0.0000
" />
<path d="M7.3532 1.2966
L7.4175 0.6489
" />
<path d="M7.2324 1.9379
L7.3532 1.2966
" />
<path d="M7.0555 2.5680
L7.2324 1.9379
" />
<path d="M6.8237 3.1820
L7.0555 2.5680
" />
<path d="M6.5385 3.7750
L6.8237 3.1820
" />
<path d="M6.2017 4.3425
L6.5385 3.7750
" />
<path d="M5.8156 4.8798
L6.2017 4.3425
" />
<path d="M5.3828 5.3828
L5.8156 4.8798
" />
<path d="M4.9066 5.8475
L5.3828 5.3828
" />
<path d="M4.3902 6.2699
L4.9066 5.8475
" />
<path d="M3.8375 6.6467
L4.3902 6.2699
" />
<path d="M3.2524 6.9748
L3.8375 6.6467
" />
<path d="M2.6393 7.2513
L3.2524 6.9748
" />
<path d="M2.0026 7.4739
L2.6393 7.2513
" />
<path d="M1.3472 7.6405
L2.0026 7.4739
" />
<path d="M0.6780 7.7496
L1.3472 7.6405
" />
<path d="M0.0000 7.8000
L0.6780 7.7496
" />
<path d="M-0.6816 7.7911
L0.0000 7.8000
" />
<path d="M-1.3617 7.7225
L-0.6816 7.7911
" />
<path d="M-2.0350 7.5946
L-1.3617 7.7225
" />
<path d="M-2.6963 7.4079
L-2.0350 7.5946
" />
<path d="M-3.3404 7.1636
L-2.6963 7.4079
" />
<path d="M-3.9625 6.8633
L-3.3404 7.1636
" />
<path d="M-4.5575 6.5088
L-3.9625 6.8633
" />
<path d="M-5.1209 6.1028
L-4.5575 6.5088
" />
<path d="M-5.6480 5.6480
L-5.1209 6.1028
" />
<path d="M-6.1347 5.1477
L-5.6480 5.6480
" />
<path d="M-6.5771 4.6053
L-6.1347 5.1477
" />
<path d="M-6.9715 4.0250
L-6.5771 4.6053
" />
<path d="M-7.3147 3.4109
L-6.9715 4.0250
" />
<path d="M-7.6037 2.7675
L-7.3147 3.4109
" />
<path d="M-7.8361 2.0997
L-7.6037 2.7675
" />
<path d="M-8.0098 1.4123
L-7.8361 2.0997
" />
<path d="M-8.1231 0.7107
L-8.0098 1.4123
" />
<path d="M-8.1750 0.0000
L-8.1231 0.7107
" />
<path d="M-8.1646 -0.7143
L-8.1750 0.0000
" />
<path d="M-8.0918 -1.4268
L-8.1646 -0.7143
" />
<path d="M-7.9568 -2.1320
L-8.0918 -1.4268
" />
<path d="M-7.7603 -2.8245
L-7.9568 -2.1320
" />
<path d="M-7.5035 -3.4989
L-7.7603 -2.8245
" />
<path d="M-7.1880 -4.1500
L-7.5035 -3.4989
" />
<path d="M-6.8160 -4.7726
L-7.1880 -4.1500
" />
<path d="M-6.3901 -5.3619
L-6.8160 -4.7726
" />
<path d="M-5.9132 -5.9132
L-6.3901 -5.3619
" />
<path d="M-5.3887 -6.4220
L-5.9132 -5.9132
" />
<path d="M-4.8204 -6.8843
L-5.3887 -6.4220
" />
<path d="M-4.2125 -7.2963
L-4.8204 -6.8843
" />
<path d="M-3.5694 -7.6545
L-4.2125 -7.2963
" />
<path d="M-2.8958 -7.9561
L-3.5694 -7.6545
" />
<path d="M-2.1967 -8.1983
L-2.8958 -7.9561
" />
<path d="M-1.4775 -8.3791
L-2.1967 -8.1983
" />
<path d="M-0.7434 -8.4967
L-1.4775 -8.3791
" />
<path d="M0.0000 -8.5500
L-0.7434 -8.4967
" />
<path d="M0.7470 -8.5382
L0.0000 -8.5500
" />
<path d="M1.4919 -8.4611
L0.7470 -8.5382
" />
<path d="M2.2291 -8.3190
L1.4919 -8.4611
" />
<path d="M2.9528 -8.1127
L2.2291 -8.3190
" />
<path d="M3.6574 -7.8433
L2.9528 -8.1127
" />
<path d="M4.3375 -7.5128
L3.6574 -7.8433
" />
<path d="M4.9877 -7.1232
L4.3375 -7.5128
" />
<path d="M5.6030 -6.6774
L4.9877 -7.1232
" />
<path d="M6.1783 -6.1783
L5.6030 -6.6774
" />
<path d="M6.7093 -5.6297
L6.1783 -6.1783
" />
<path d="M7.1915 -5.0355
L6.7093 -5.6297
" />
<path d="M7.6210 -4.4000
L7.1915 -5.0355
" />
<path d="M7.9944 -3.7278
L7.6210 -4.4000
" />
<path d="M8.3084 -3.0240
L7.9944 -3.7278
" />
<path d="M8.5605 -2.2938
L8.3084 -3.0240
" />
<path d="M8.7484 -1.5426
L8.5605 -2.2938
" />
<path d="M8.8703 -0.7760
L8.7484 -1.5426
" />
<path d="M8.9250 0.0000
L8.8703 -0.7760
" />
<path d="M8.9118 0.7797
L8.9250 0.0000
" />
<path d="M8.8304 1.5570
L8.9118 0.7797
" />
<path d="M8.6813 2.3261
L8.8304 1.5570
" />
<path d="M8.4651 3.0810
L8.6813 2.3261
" />
<path d="M8.1832 3.8159
L8.4651 3.0810
" />
<path d="M7.8375 4.5250
L8.1832 3.8159
" />
<path d="M7.4304 5.2028
L7.8375 4.5250
" />
<path d="M6.9646 5.8440
L7.4304 5.2028
" />
<path d="M6.4435 6.4435
L6.9646 5.8440
" />
<path d="M5.8708 6.9965
L6.4435 6.4435
" />
<path d="M5.2506 7.4987
L5.8708 6.9965
" />
<path d="M4.5875 7.9458
L5.2506 7.4987
" />
<path d="M3.8863 8.3343
L4.5875 7.9458
" />
<path d="M3.1523 8.6608
L3.8863 8.3343
" />
<path d="M2.3908 8.9227
L3.1523 8.6608
" />
<path d="M1.6077 9.1177
L2.3908 8.9227
" />
<path d="M0.8087 9.2439
L1.6077 9.1177
" />
<path d="M0.0000 9.3000
L0.8087 9.2439
" />
<path d="M-0.8124 9.2854
L0.0000 9.3000
" />
<path d="M-1.6222 9.1997
L-0.8124 9.2854
" />
<path d="M-2.4232 9.0435
L-1.6222 9.1997
" />
<path d="M-3.2093 8.8174
L-2.4232 9.0435
" />
<path d="M-3.9744 8.5231
L-3.2093 8.8174
" />
<path d="M-4.7125 8.1623
L-3.9744 8.5231
" />
<path d="M-5.4179 7.7376
L-4.7125 8.1623
" />
<path d="M-6.0851 7.2519
L-5.4179 7.7376
" />
<path d="M-6.7087 6.7087
L-6.0851 7.2519
" />
<path d="M-7.2838 6.1118
L-6.7087 6.7087
" />
<path d="M-7.8058 5.4657
L-7.2838 6.1118
" />
<path d="M-8.2705 4.7750
L-7.8058 5.4657
" />
<path d="M-8.6741 4.0448
L-8.2705 4.7750
" />
<path d="M-9.0132 3.2805
L-8.6741 4.0448
" />
<path d="M-9.2850 2.4879
L-9.0132 3.2805
" />
<path d="M-9.4870 1.6728
L-9.2850 2.4879
" />
<path d="M-9.6174 0.8414
L-9.4870 1.6728
" />
<path d="M-9.6750 0.0000
L-9.6174 0.8414
" />
<path d="M-9.6589 -0.8450
L-9.6750 0.0000
" />
<path d="M-9.5690 -1.6873
L-9.6589 -0.8450
" />
<path d="M-9.4057 -2.5202
L-9.5690 -1.6873
" />
<path d="M-9.1698 -3.3375
L-9.4057 -2.5202
" />
<path d="M-8.8629 -4.1329
L-9.1698 -3.3375
" />
<path d="M-8.4870 -4.9000
L-8.8629 -4.1329
" />
<path d="M-8.0448 -5.6330
L-8.4870 -4.9000
" />
<path d="M-7.5392 -6.3261
L-8.0448 -5.6330
" />
<path d="M-6.9738 -6.9738
L-7.5392 -6.3261
" />
<path d="M-6.3529 -7.5711
L-6.9738 -6.9738
" />
<path d="M-5.6808 -8.1130
L-6.3529 -7.5711
" />
<path d="M-4.9625 -8.5953
L-5.6808 -8.1130
" />
<path d="M-4.2033 -9.0140
L-4.9625 -8.5953
" />
<path d="M-3.4088 -9.3656
L-4.2033 -9.0140
" />
<path d="M-2.5850 -9.6472
L-3.4088 -9.3656
" />
<path d="M-1.7379 -9.8563
L-2.5850 -9.6472
" />
<path d="M-0.8741 -9.9910
L-1.7379 -9.8563
" />
<path d="M0.0000 -10.0500
L-0.8741 -9.9910
" />
<path d="M0.8777 -10.0325
L0.0000 -10.0500
" />
<path d="M1.7524 -9.9384
L0.8777 -10.0325
" />
<path d="M2.6173 -9.7679
L1.7524 -9.9384
" />
<path d="M3.4658 -9.5222
L2.6173 -9.7679
" />
<path d="M4.2913 -9.2028
L3.4658 -9.5222
" />
<path d="M5.0875 -8.8118
L4.2913 -9.2028
" />
<path d="M5.8481 -8.3519
L5.0875 -8.8118
" />
<path d="M6.5671 -7.8264
L5.8481 -8.3519
" />
<path d="M7.2390 -7.2390
L6.5671 -7.8264
" />
<path d="M7.8583 -6.5939
L7.2390 -7.2390
" />
<path d="M8.4202 -5.8959
L7.8583 -6.5939
" />
<path d="M8.9201 -5.1500
L8.4202 -5.8959
" />
<path d="M9.3539 -4.3618
L8.9201 -5.1500
" />
<path d="M9.7180 -3.5371
L9.3539 -4.3618
" />
<path d="M10.0094 -2.6820
L9.7180 -3.5371
" />
<path d="M10.2256 -1.8030
L10.0094 -2.6820
" />
<path d="M10.3646 -0.9068
L10.2256 -1.8030
" />
<path d="M10.4250 0.0000
L10.3646 -0.9068
" />
<path d="M10.4061 0.9104
L10.4250 0.0000
" />
<path d="M10.3077 1.8175
L10.4061 0.9104
" />
<path d="M10.1301 2.7144
L10.3077 1.8175
" />
<path d="M9.8746 3.5941
L10.1301 2.7144
" />
<path d="M9.5427 4.4498
L9.8746 3.5941
" />
<path d="M9.1366 5.2750
L9.5427 4.4498
" />
<path d="M8.6591 6.0632
L9.1366 5.2750
" />
<path d="M8.1137 6.8082
L8.6591 6.0632
" />
<path d="M7.5042 7.5042
L8.1137 6.8082
" />
<path d="M6.8350 8.1456
L7.5042 7.5042
" />
<path d="M6.1110 8.7274
L6.8350 8.1456
" />
<path d="M5.3375 9.2448
L6.1110 8.7274
" />
<path d="M4.5203 9.6937
L5.3375 9.2448
" />
<path d="M3.6653 10.0704
L4.5203 9.6937
" />
<path d="M2.7791 10.3716
L3.6653 10.0704
" />
<path d="M1.8682 10.5949
L2.7791 10.3716
" />
<path d="M0.9395 10.7381
L1.8682 10.5949
" />
<path d="M0.0000 10.8000
L0.9395 10.7381
" />
<path d="M-0.9431 10.7797
L0.0000 10.8000
" />
<path d="M-1.8826 10.6770
L-0.9431 10.7797
" />
<path d="M-2.8114 10.4924
L-1.8826 10.6770
" />
<path d="M-3.7223 10.2270
L-2.8114 10.4924
" />
<path d="M-4.6083 9.8825
L-3.7223 10.2270
" />
<path d="M-5.4625 9.4613
L-4.6083 9.8825
" />
<path d="M-6.2783 8.9663
L-5.4625 9.4613
" />
<path d="M-7.0492 8.4010
L-6.2783 8.9663
" />
<path d="M-7.7693 7.7693
L-7.0492 8.4010
" />
<path d="M-8.4329 7.0760
L-7.7693 7.7693
" />
<path d="M-9.0346 6.3261
L-8.4329 7.0760
" />
<path d="M-9.5696 5.5250
L-9.0346 6.3261
" />
<path d="M-10.0336 4.6787
L-9.5696 5.5250
" />
<path d="M-10.4228 3.7936
L-10.0336 4.6787
" />
<path d="M-10.7339 2.8761
L-10.4228 3.7936
" />
<path d="M-10.9642 1.9333
L-10.7339 2.8761
" />
<path d="M-11.1117 0.9721
L-10.9642 1.9333
" />
<path d="M-11.1750 0.0000
L-11.1117 0.9721
" />
<path d="M-11.1532 -0.9758
L-11.1750 0.0000
" />
<path d="M-11.0463 -1.9478
L-11.1532 -0.9758
" />
<path d="M-10.8546 -2.9085
L-11.0463 -1.9478
" />
<path d="M-10.5794 -3.8506
L-10.8546 -2.9085
" />
<path d="M-10.2224 -4.7668
L-10.5794 -3.8506
" />
<path d="M-9.7861 -5.6500
L-10.2224 -4.7668
" />
<path d="M-9.2735 -6.4934
L-9.7861 -5.6500
" />
<path d="M-8.6882 -7.2903
L-9.2735 -6.4934
" />
<path d="M-8.0345 -8.0345
L-8.6882 -7.2903
" />
<path d="M-7.3171 -8.7201
L-8.0345 -8.0345
" />
<path d="M-6.5412 -9.3417
L-7.3171 -8.7201
" />
<path d="M-5.7125 -9.8943
L-6.5412 -9.3417
" />
<path d="M-4.8372 -10.3734
L-5.7125 -9.8943
" />
<path d="M-3.9218 -10.7751
L-4.8372 -10.3734
" />
<path d="M-2.9732 -11.0961
L-3.9218 -10.7751
" />
<path d="M-1.9984 -11.3335
L-2.9732 -11.0961
" />
<path d="M-1.0048 -11.4853
L-1.9984 -11.3335
" />
<path d="M0.0000 -11.5500
L-1.0048 -11.4853
" />
<path d="M1.0085 -11.5268
L0.0000 -11.5500
" />
<path d="M2.0129 -11.4156
L1.0085 -11.5268
" />
<path d="M3.0055 -11.2168
L2.0129 -11.4156
" />
<path d="M3.9788 -10.9318
L3.0055 -11.2168
" />
<path d="M4.9253 -10.5623
L3.9788 -10.9318
" />
<path d="M5.8375 -10.1108
L4.9253 -10.5623
" />
<path d="M6.7085 -9.5807
L5.8375 -10.1108
" />
<path d="M7.5313 -8.9755
L6.7085 -9.5807
" />
<path d="M8.2997 -8.2997
L7.5313 -8.9755
" />
<path d="M9.0074 -7.5581
L8.2997 -8.2997
" />
<path d="M9.6489 -6.7563
L9.0074 -7.5581
" />
<path d="M10.2191 -5.9000
L9.6489 -6.7563
" />
<path d="M10.7133 -4.9957
L10.2191 -5.9000
" />
<path d="M11.1275 -4.0501
L10.7133 -4.9957
" />
<path d="M11.4583 -3.0702
L11.1275 -4.0501
" />
<path d="M11.7028 -2.0635
L11.4583 -3.0702
" />
<path d="M11.8589 -1.0375
L11.7028 -2.0635
" />
<path d="M11.9250 0.0000
L11.8589 -1.0375
" />
<path d="M11.9004 1.0411
L11.9250 0.0000
" />
<path d="M11.7849 2.0780
L11.9004 1.0411
" />
<path d="M11.5790 3.1026
L11.7849 2.0780
" />
<path d="M11.2841 4.1071
L11.5790 3.1026
" />
<path d="M10.9021 5.0837
L11.2841 4.1071
" />
<path d="M10.4356 6.0250
L10.9021 5.0837
" />
<path d="M9.8878 6.9235
L10.4356 6.0250
" />
<path d="M9.2628 7.7724
L9.8878 6.9235
" />
<path d="M8.5648 8.5648
L9.2628 7.7724
" />
<path d="M7.7992 9.2947
L8.5648 8.5648
" />
<path d="M6.9713 9.9561
L7.7992 9.2947
" />
<path d="M6.0875 10.5439
L6.9713 9.9561
" />
<path d="M5.1542 11.0532
L6.0875 10.5439
" />
<path d="M4.1783 11.4799
L5.1542 11.0532
" />
<path d="M3.1673 11.8205
L4.1783 11.4799
" />
<path d="M2.1286 12.0721
L3.1673 11.8205
" />
<path d="M1.0702 12.2324
L2.1286 12.0721
" />
<path d="M0.0000 12.3000
L1.0702 12.2324
" />
<path d="M-1.0738 12.2739
L0.0000 12.3000
" />
<path d="M-2.1431 12.1542
L-1.0738 12.2739
" />
<path d="M-3.1996 11.9413
L-2.1431 12.1542
" />
<path d="M-4.2353 11.6365
L-3.1996 11.9413
" />
<path d="M-5.2422 11.2420
L-4.2353 11.6365
" />
<path d="M-6.2125 10.7604
L-5.2422 11.2420
" />
<path d="M-7.1386 10.1950
L-6.2125 10.7604
" />
<path d="M-8.0134 9.5500
L-7.1386 10.1950
" />
<path d="M-8.8300 8.8300
L-8.0134 9.5500
" />
<path d="M-9.5819 8.0402
L-8.8300 8.8300
" />
<path d="M-10.2633 7.1864
L-9.5819 8.0402
" />
<path d="M-10.8686 6.2750
L-10.2633 7.1864
" />
<path d="M-11.3930 5.3127
L-10.8686 6.2750
" />
<path d="M-11.8323 4.3066
L-11.3930 5.3127
" />
<path d="M-12.1827 3.2644
L-11.8323 4.3066
" />
<path d="M-12.4414 2.1938
L-12.1827 3.2644
" />
<path d="M-12.6060 1.1029
L-12.4414 2.1938
" />
<path d="M-12.6750 0.0000
L-12.6060 1.1029
" />
<path d="M-12.6475 -1.1065
L-12.6750 0.0000
" />
<path d="M-12.5235 -2.2082
L-12.6475 -1.1065
" />
<path d="M-12.3035 -3.2967
L-12.5235 -2.2082
" />
<path d="M-11.9889 -4.3636
L-12.3035 -3.2967
" />
<path d="M-11.5819 -5.4007
L-11.9889 -4.3636
" />
<path d="M-11.0851 -6.4000
L-11.5819 -5.4007
" />
<path d="M-10.5022 -7.3537
L-11.0851 -6.4000
" />
<path d="M-9.8373 -8.2545
L-10.5022 -7.3537
" />
<path d="M-9.0952 -9.0952
L-9.8373 -8.2545
" />
<path d="M-8.2812 -9.8692
L-9.0952 -9.0952
" />
<path d="M-7.4015 -10.5705
L-8.2812 -9.8692
" />
<path d="M-6.4625 -11.1934
L-7.4015 -10.5705
" />
<path d="M-5.4711 -11.7329
L-6.4625 -11.1934
" />
<path d="M-4.4349 -12.1847
L-5.4711 -11.7329
" />
<path d="M-3.3614 -12.5450
L-4.4349 -12.1847
" />
<path d="M-2.2589 -12.8107
L-3.3614 -12.5450
" />
<path d="M-1.1356 -12.9796
L-2.2589 -12.8107
" />
<path d="M0.0000 -13.0500
L-1.1356 -12.9796
" />
<path d="M1.1392 -13.0211
L0.0000 -13.0500
" />
<path d="M2.2733 -12.8928
L1.1392 -13.0211
" />
<path d="M3.3938 -12.6657
L2.2733 -12.8928
" />
<path d="M4.4919 -12.3413
L3.3938 -12.6657
" />
<path d="M5.5592 -11.9217
L4.4919 -12.3413
" />
<path d="M6.5875 -11.4099
L5.5592 -11.9217
" />
<path d="M7.5688 -10.8094
L6.5875 -11.4099
" />
<path d="M8.4955 -10.1246
L7.5688 -10.8094
" />
<path d="M9.3603 -9.3603
L8.4955 -10.1246
" />
<path d="M10.1565 -8.5223
L9.3603 -9.3603
" />
<path d="M10.8777 -7.6166
L10.1565 -8.5223
" />
<path d="M11.5181 -6.6500
L10.8777 -7.6166
" />
<path d="M12.0728 -5.6296
L11.5181 -6.6500
" />
<path d="M12.5371 -4.5631
L12.0728 -5.6296
" />
<path d="M12.9072 -3.4585
L12.5371 -4.5631
" />
<path d="M13.1800 -2.3240
L12.9072 -3.4585
" />
<path d="M13.3532 -1.1683
L13.1800 -2.3240
" />
<path d="M13.4250 0.0000
L13.3532 -1.1683
" />
<path d="M13.3947 1.1719
L13.4250 0.0000
" />
<path d="M13.2621 2.3385
L13.3947 1.1719
" />
<path d="M13.0279 3.4908
L13.2621 2.3385
" />
<path d="M12.6937 4.6201
L13.0279 3.4908
" />
<path d="M12.2616 5.7177
L12.6937 4.6201
" />
<path d="M11.7346 6.7750
L12.2616 5.7177
" />
<path d="M11.1166 7.7839
L11.7346 6.7750
" />
<path d="M10.4118 8.7366
L11.1166 7.7839
" />
<path d="M9.6255 9.6255
L10.4118 8.7366
" />
<path d="M8.7633 10.4437
L9.6255 9.6255
" />
<path d="M7.8317 11.1848
L8.7633 10.4437
" />
<path d="M6.8375 11.8429
L7.8317 11.1848
" />
<path d="M5.7881 12.4126
L6.8375 11.8429
" />
<path d="M4.6914 12.8895
L5.7881 12.4126
" />
<path d="M3.5555 13.2694
L4.6914 12.8895
" />
<path d="M2.3891 13.5493
L3.5555 13.2694
" />
<path d="M1.2009 13.7267
L2.3891 13.5493
" />
<path d="M0.0000 13.8000
L1.2009 13.7267
" />
<path d="M-1.2046 13.7682
L0.0000 13.8000
" />
<path d="M-2.4036 13.6314
L-1.2046 13.7682
" />
<path d="M-3.5879 13.3901
L-2.4036 13.6314
" />
<path d="M-4.7484 13.0461
L-3.5879 13.3901
" />
<path d="M-5.8762 12.6015
L-4.7484 13.0461
" />
<path d="M-6.9625 12.0594
L-5.8762 12.6015
" />
<path d="M-7.9990 11.4238
L-6.9625 12.0594
" />
<path d="M-8.9776 10.6991
L-7.9990 11.4238
" />
<path d="M-9.8907 9.8907
L-8.9776 10.6991
" />
<path d="M-10.7310 9.0044
L-9.8907 9.8907
" />
<path d="M-11.4920 8.0468
L-10.7310 9.0044
" />
<path d="M-12.1677 7.0250
L-11.4920 8.0468
" />
<path d="M-12.7525 5.9466
L-12.1677 7.0250
" />
<path d="M-13.2418 4.8196
L-12.7525 5.9466
" />
<path d="M-13.6316 3.6526
L-13.2418 4.8196
" />
<path d="M-13.9186 2.4542
L-13.6316 3.6526
" />
<path d="M-14.1003 1.2336
L-13.9186 2.4542
" />
<path d="M-14.1750 0.0000
L-14.1003 1.2336
" />
<path d="M-14.1418 -1.2372
L-14.1750 0.0000
" />
<path d="M-14.0007 -2.4687
L-14.1418 -1.2372
" />
<path d="M-13.7524 -3.6849
L-14.0007 -2.4687
" />
<path d="M-13.3984 -4.8766
L-13.7524 -3.6849
" />
<path d="M-12.9413 -6.0346
L-13.3984 -4.8766
" />
<path d="M-12.3842 -7.1500
L-12.9413 -6.0346
" />
<path d="M-11.7309 -8.2141
L-12.3842 -7.1500
" />
<path d="M-10.9864 -9.2186
L-11.7309 -8.2141
" />
<path d="M-10.1558 -10.1558
L-10.9864 -9.2186
" />
<path d="M-9.2454 -11.0183
L-10.1558 -10.1558
" />
<path d="M-8.2619 -11.7992
L-9.2454 -11.0183
" />
<path d="M-7.2125 -12.4924
L-8.2619 -11.7992
" />
<path d="M-6.1051 -13.0924
L-7.2125 -12.4924
" />
<path d="M-4.9479 -13.5942
L-6.1051 -13.0924
" />
<path d="M-3.7496 -13.9939
L-4.9479 -13.5942
" />
<path d="M-2.5193 -14.2879
L-3.7496 -13.9939
" />
<path d="M-1.2663 -14.4739
L-2.5193 -14.2879
" />
<path d="M0.0000 -14.5500
L-1.2663 -14.4739
" />
</g> 
</svg>
