%TF.GenerationSoftware,KiCad,Pcbnew,8.0.3*%
%TF.CreationDate,2024-06-28T09:36:34-07:00*%
%TF.ProjectId,,58585858-5858-4585-9858-585858585858,rev?*%
%TF.SameCoordinates,Original*%
%TF.FileFunction,Copper,L1,Top*%
%TF.FilePolarity,Positive*%
%FSLAX46Y46*%
G04 Gerber Fmt 4.6, Leading zero omitted, Abs format (unit mm)*
G04 Created by KiCad (PCBNEW 8.0.3) date 2024-06-28 09:36:34*
%MOMM*%
%LPD*%
G01*
G04 APERTURE LIST*
%TA.AperFunction,Conductor*%
%ADD10C,0.900000*%
%TD*%
G04 APERTURE END LIST*
D10*
%TO.N,*%
X161150000Y-88850000D02*
X139900000Y-88850000D01*
X161150000Y-111150000D02*
X161150000Y-88850000D01*
X138850000Y-111150000D02*
X161150000Y-111150000D01*
X138850000Y-87800000D02*
X138850000Y-111150000D01*
X162200000Y-87800000D02*
X138850000Y-87800000D01*
X162200000Y-112200000D02*
X162200000Y-87800000D01*
X137800000Y-112200000D02*
X162200000Y-112200000D01*
X137800000Y-86750000D02*
X137800000Y-112200000D01*
X163250000Y-86750000D02*
X137800000Y-86750000D01*
X163250000Y-113250000D02*
X163250000Y-86750000D01*
X136750000Y-113250000D02*
X163250000Y-113250000D01*
X136750000Y-85700000D02*
X136750000Y-113250000D01*
X164300000Y-85700000D02*
X136750000Y-85700000D01*
X164300000Y-114300000D02*
X164300000Y-85700000D01*
X135700000Y-114300000D02*
X164300000Y-114300000D01*
X135700000Y-84650000D02*
X135700000Y-114300000D01*
X165350000Y-84650000D02*
X135700000Y-84650000D01*
X165350000Y-115350000D02*
X165350000Y-84650000D01*
X134650000Y-115350000D02*
X165350000Y-115350000D01*
X134650000Y-83600000D02*
X134650000Y-115350000D01*
X166400000Y-83600000D02*
X134650000Y-83600000D01*
X166400000Y-116400000D02*
X166400000Y-83600000D01*
X133600000Y-116400000D02*
X166400000Y-116400000D01*
X133600000Y-82550000D02*
X133600000Y-116400000D01*
X167450000Y-82550000D02*
X133600000Y-82550000D01*
X167450000Y-117450000D02*
X167450000Y-82550000D01*
X132550000Y-117450000D02*
X167450000Y-117450000D01*
X132550000Y-81500000D02*
X132550000Y-117450000D01*
X168500000Y-81500000D02*
X132550000Y-81500000D01*
X168500000Y-118500000D02*
X168500000Y-81500000D01*
X131500000Y-118500000D02*
X168500000Y-118500000D01*
X131500000Y-80450000D02*
X131500000Y-118500000D01*
X169550000Y-80450000D02*
X131500000Y-80450000D01*
X169550000Y-119550000D02*
X169550000Y-80450000D01*
X130449999Y-119550000D02*
X169550000Y-119550000D01*
X130449999Y-79400000D02*
X130449999Y-119550000D01*
%TD*%
M02*
