<?xml version="1.0" standalone="no"?>
 <!DOCTYPE svg PUBLIC "-//W3C//DTD SVG 1.1//EN" 
 "http://www.w3.org/Graphics/SVG/1.1/DTD/svg11.dtd"> 
<svg
  xmlns:svg="http://www.w3.org/2000/svg"
  xmlns="http://www.w3.org/2000/svg"
  xmlns:xlink="http://www.w3.org/1999/xlink"
  version="1.1"
  width="297.0022mm" height="210.0072mm" viewBox="0.0000 0.0000 297.0022 210.0072">
<title>SVG Image created as -LOOP_SQ_di40_tu9_wi900_cl150_cT35_La2_Pt600_Re1206_In15.svg date 2024/07/10 15:32:22 </title>
  <desc>Image generated by PCBNEW </desc>
<g style="fill:#000000; fill-opacity:1.0000;stroke:#000000; stroke-opacity:1.0000;
stroke-linecap:round; stroke-linejoin:round;"
 transform="translate(0 0) scale(1 1)">
</g>
<g style="fill:none; 
stroke:#000000; stroke-width:0.9000; stroke-opacity:1; 
stroke-linecap:round; stroke-linejoin:round;">
<path d="M194.5040 100.9361
L194.5500 100.0000
" />
<path d="M194.3665 101.8631
L194.5040 100.9361
" />
<path d="M194.1388 102.7722
L194.3665 101.8631
" />
<path d="M193.8230 103.6546
L194.1388 102.7722
" />
<path d="M193.4223 104.5018
L193.8230 103.6546
" />
<path d="M192.9405 105.3057
L193.4223 104.5018
" />
<path d="M192.3822 106.0585
L192.9405 105.3057
" />
<path d="M191.7529 106.7529
L192.3822 106.0585
" />
<path d="M191.0585 107.3822
L191.7529 106.7529
" />
<path d="M190.3057 107.9405
L191.0585 107.3822
" />
<path d="M189.5018 108.4223
L190.3057 107.9405
" />
<path d="M188.6546 108.8230
L189.5018 108.4223
" />
<path d="M187.7722 109.1388
L188.6546 108.8230
" />
<path d="M186.8631 109.3665
L187.7722 109.1388
" />
<path d="M185.9361 109.5040
L186.8631 109.3665
" />
<path d="M185.0000 109.5500
L185.9361 109.5040
" />
<path d="M184.0639 109.5040
L185.0000 109.5500
" />
<path d="M183.1369 109.3665
L184.0639 109.5040
" />
<path d="M182.2278 109.1388
L183.1369 109.3665
" />
<path d="M181.3454 108.8230
L182.2278 109.1388
" />
<path d="M180.4982 108.4223
L181.3454 108.8230
" />
<path d="M179.6943 107.9405
L180.4982 108.4223
" />
<path d="M178.9415 107.3822
L179.6943 107.9405
" />
<path d="M178.2471 106.7529
L178.9415 107.3822
" />
<path d="M177.6178 106.0585
L178.2471 106.7529
" />
<path d="M177.0595 105.3057
L177.6178 106.0585
" />
<path d="M176.5777 104.5018
L177.0595 105.3057
" />
<path d="M176.1770 103.6546
L176.5777 104.5018
" />
<path d="M175.8612 102.7722
L176.1770 103.6546
" />
<path d="M175.6335 101.8631
L175.8612 102.7722
" />
<path d="M175.4960 100.9361
L175.6335 101.8631
" />
<path d="M175.4500 100.0000
L175.4960 100.9361
" />
<path d="M175.4960 99.0639
L175.4500 100.0000
" />
<path d="M175.6335 98.1369
L175.4960 99.0639
" />
<path d="M175.8612 97.2278
L175.6335 98.1369
" />
<path d="M176.1770 96.3454
L175.8612 97.2278
" />
<path d="M176.5777 95.4982
L176.1770 96.3454
" />
<path d="M177.0595 94.6943
L176.5777 95.4982
" />
<path d="M177.6178 93.9415
L177.0595 94.6943
" />
<path d="M178.2471 93.2471
L177.6178 93.9415
" />
<path d="M178.9415 92.6178
L178.2471 93.2471
" />
<path d="M179.6943 92.0595
L178.9415 92.6178
" />
<path d="M180.4982 91.5777
L179.6943 92.0595
" />
<path d="M181.3454 91.1769
L180.4982 91.5777
" />
<path d="M182.2278 90.8612
L181.3454 91.1769
" />
<path d="M183.1369 90.6335
L182.2278 90.8612
" />
<path d="M184.0639 90.4960
L183.1369 90.6335
" />
<path d="M185.0000 90.4500
L184.0639 90.4960
" />
<path d="M185.9361 90.4960
L185.0000 90.4500
" />
<path d="M186.8631 90.6335
L185.9361 90.4960
" />
<path d="M187.7722 90.8612
L186.8631 90.6335
" />
<path d="M188.6546 91.1769
L187.7722 90.8612
" />
<path d="M189.5018 91.5777
L188.6546 91.1769
" />
<path d="M190.3057 92.0595
L189.5018 91.5777
" />
<path d="M191.0585 92.6178
L190.3057 92.0595
" />
<path d="M191.7529 93.2471
L191.0585 92.6178
" />
<path d="M192.3822 93.9415
L191.7529 93.2471
" />
<path d="M192.9405 94.6943
L192.3822 93.9415
" />
<path d="M193.4223 95.4982
L192.9405 94.6943
" />
<path d="M193.8230 96.3454
L193.4223 95.4982
" />
<path d="M194.1388 97.2278
L193.8230 96.3454
" />
<path d="M194.3665 98.1369
L194.1388 97.2278
" />
<path d="M194.5040 99.0639
L194.3665 98.1369
" />
<path d="M194.5500 100.0000
L194.5040 99.0639
" />
</g> 
</svg>
